<?xml version="1.0" encoding="utf-8"?>
<!-- Generator: Adobe Illustrator 24.0.3, SVG Export Plug-In . SVG Version: 6.00 Build 0)  -->
<svg version="1.1" xmlns="http://www.w3.org/2000/svg" xmlns:xlink="http://www.w3.org/1999/xlink" x="0px" y="0px"
	 viewBox="0 0 500 500" style="enable-background:new 0 0 500 500;" xml:space="preserve">
<style type="text/css">
	.st0{fill:none;}
	.st1{fill:#E0E0E0;}
	.st2{fill-rule:evenodd;clip-rule:evenodd;fill:#E0E0E0;}
	.st3{fill-rule:evenodd;clip-rule:evenodd;fill:#EBEBEB;}
	.st4{fill-rule:evenodd;clip-rule:evenodd;fill:#F5F5F5;}
	.st5{fill:#EBEBEB;}
	.st6{fill:#F5F5F5;}
	.st7{display:none;}
	.st8{display:inline;fill:#EBEBEB;}
	.st9{fill:#FAFAFA;}
	.st10{fill:#263238;}
	.st11{fill:#455A64;}
	.st12{fill:#E8903E;}
	.st13{fill:#FFFFFF;}
	.st14{fill:#DE5928;}
	.st15{opacity:0.3;}
	.st16{fill:#E8505B;}
	.st17{opacity:0.8;}
	.st18{opacity:0.6;}
	.st19{fill-rule:evenodd;clip-rule:evenodd;fill:#DE5928;}
	.st20{fill-rule:evenodd;clip-rule:evenodd;fill:#455A64;}
</style>
<g id="Background_Complete">
	<g>
		<g>
			<g>
				<g>
					<path class="st0" d="M373.23,244.02c0.47-1.9,1.19-3.7,2.12-5.37l-2.93-4.48l6.16-6.36l4.57,2.78c1.64-0.99,3.41-1.76,5.29-2.3
						l1.1-5.23l8.85-0.14l1.27,5.19c1.9,0.47,3.7,1.19,5.37,2.12l4.48-2.93l6.36,6.16l-2.78,4.57c0.99,1.64,1.76,3.41,2.3,5.29
						l5.23,1.1l0.14,8.85l-5.2,1.27c-0.47,1.9-1.19,3.7-2.12,5.37l2.93,4.48l-6.16,6.36l-4.57-2.78c-1.64,0.99-3.41,1.76-5.29,2.3
						l-1.1,5.23l-8.85,0.14l-1.27-5.2c-1.9-0.47-3.7-1.19-5.37-2.12l-4.48,2.93l-6.36-6.16l2.78-4.57c-0.99-1.64-1.76-3.41-2.3-5.29
						l-5.23-1.1l-0.14-8.85L373.23,244.02L373.23,244.02z M384.9,249.04c0.09,5.24,4.41,9.42,9.65,9.34
						c5.24-0.09,9.42-4.41,9.34-9.65c-0.09-5.24-4.4-9.42-9.65-9.34C388.99,239.47,384.81,243.79,384.9,249.04z"/>
				</g>
				<g>
					<g>
						<path class="st1" d="M384.9,249.04c0,0-0.14-0.85,0.16-2.35c0.3-1.47,1.19-3.66,3.35-5.41c1.07-0.85,2.44-1.59,4.03-1.91
							c1.58-0.31,3.38-0.3,5.11,0.31c0.87,0.28,1.71,0.72,2.49,1.28c0.79,0.55,1.5,1.23,2.1,2.03c1.23,1.57,1.94,3.62,2,5.73
							c0.02,2.12-0.63,4.18-1.81,5.79c-0.57,0.82-1.26,1.53-2.03,2.1c-0.76,0.58-1.59,1.05-2.45,1.36c-1.71,0.67-3.51,0.74-5.1,0.48
							c-1.6-0.27-3-0.96-4.09-1.78c-2.22-1.67-3.18-3.84-3.53-5.29C384.79,249.89,384.9,249.04,384.9,249.04
							c0.07-0.01,0.03,0.85,0.43,2.29c0.4,1.41,1.39,3.48,3.55,5.05c1.07,0.77,2.41,1.41,3.95,1.65c1.53,0.23,3.24,0.15,4.86-0.5
							c0.82-0.3,1.6-0.75,2.32-1.3c0.73-0.55,1.38-1.22,1.92-2c1.11-1.53,1.72-3.49,1.7-5.49c-0.05-2-0.72-3.94-1.88-5.43
							c-0.56-0.76-1.24-1.41-1.98-1.93c-0.74-0.53-1.53-0.95-2.36-1.23c-1.64-0.6-3.35-0.62-4.87-0.34
							c-1.53,0.29-2.85,0.98-3.89,1.78c-2.11,1.64-3.03,3.74-3.38,5.16C384.9,248.19,384.96,249.04,384.9,249.04z"/>
					</g>
				</g>
				<g>
					<g>
						<path class="st1" d="M373.23,244.02c0.01,0.01-0.1,0.04-0.32,0.1c-0.24,0.06-0.56,0.15-0.98,0.26
							c-0.9,0.23-2.19,0.56-3.88,0.99l0.06-0.08c0.05,2.26,0.11,5.24,0.19,8.85l-0.1-0.13c1.59,0.33,3.35,0.69,5.24,1.08l0.09,0.02
							l0.03,0.09c0.5,1.73,1.25,3.51,2.3,5.25l0.05,0.09l-0.05,0.09c-0.86,1.43-1.8,2.97-2.77,4.58l-0.03-0.23
							c2.01,1.93,4.14,3.99,6.37,6.14l-0.25-0.02c1.38-0.91,2.91-1.91,4.47-2.94l0.11-0.07l0.11,0.06c1.55,0.87,3.37,1.62,5.31,2.09
							l0.13,0.03l0.03,0.13c0.39,1.61,0.83,3.39,1.27,5.19l-0.23-0.18c2.78-0.05,5.78-0.1,8.85-0.15l-0.23,0.19
							c0.34-1.63,0.71-3.42,1.09-5.23l0.03-0.15l0.14-0.04c1.72-0.49,3.54-1.25,5.23-2.27l0.13-0.08l0.13,0.08
							c1.43,0.87,2.99,1.82,4.57,2.78l-0.32,0.04c1.95-2.01,4.04-4.17,6.15-6.36l-0.03,0.32c-0.92-1.41-1.92-2.94-2.93-4.48
							l-0.09-0.13l0.08-0.14c0.89-1.58,1.63-3.4,2.1-5.3l0-0.01l0.04-0.15l0.15-0.04c1.74-0.42,3.48-0.85,5.2-1.27l-0.2,0.26
							c-0.05-2.99-0.1-5.94-0.14-8.85l0.2,0.25c-1.76-0.37-3.51-0.74-5.23-1.1l-0.15-0.03l-0.04-0.15
							c-0.52-1.86-1.29-3.62-2.27-5.23l-0.08-0.13l0.08-0.13c0.94-1.55,1.87-3.07,2.78-4.57l0.04,0.31
							c-2.17-2.1-4.29-4.16-6.35-6.16l0.3,0.03c-1.52,0.99-3.01,1.96-4.48,2.92l-0.12,0.08l-0.12-0.07
							c-1.7-0.95-3.49-1.66-5.31-2.11l-0.13-0.03l-0.03-0.13c-0.43-1.78-0.85-3.51-1.26-5.2l0.21,0.17
							c-3.11,0.04-6.05,0.09-8.85,0.13l0.19-0.16c-0.39,1.84-0.76,3.57-1.11,5.23l-0.02,0.11l-0.11,0.03
							c-1.97,0.55-3.71,1.34-5.26,2.26l-0.09,0.05l-0.09-0.05c-1.66-1.02-3.15-1.93-4.56-2.79l0.19-0.02
							c-2.4,2.45-4.44,4.54-6.18,6.33l0.01-0.14c1.16,1.8,2.11,3.27,2.9,4.5l0.03,0.04l-0.02,0.04c-0.96,1.69-1.46,3.06-1.76,3.96
							c-0.14,0.44-0.24,0.78-0.32,1.02C373.27,243.92,373.23,244.02,373.23,244.02s0.02-0.13,0.07-0.35
							c0.06-0.23,0.14-0.58,0.28-1.04c0.28-0.92,0.76-2.3,1.7-4.02l0,0.09c-0.81-1.22-1.77-2.68-2.95-4.46l-0.05-0.08l0.07-0.07
							c1.73-1.8,3.75-3.91,6.13-6.39l0.08-0.09l0.11,0.06c1.42,0.85,2.92,1.76,4.58,2.76l-0.18,0c1.57-0.95,3.33-1.76,5.33-2.33
							l-0.13,0.14c0.35-1.67,0.7-3.4,1.08-5.24l0.03-0.16l0.16,0c2.8-0.05,5.74-0.1,8.85-0.16l0.17,0l0.04,0.17
							c0.41,1.69,0.84,3.41,1.27,5.19l-0.16-0.17c1.85,0.46,3.68,1.17,5.43,2.14l-0.24,0.01c1.47-0.96,2.96-1.94,4.47-2.93l0.16-0.1
							l0.14,0.13c2.07,2,4.19,4.05,6.37,6.15l0.14,0.14l-0.1,0.17c-0.91,1.5-1.84,3.03-2.78,4.57l0-0.26c1,1.65,1.79,3.45,2.33,5.35
							l-0.19-0.18c1.73,0.36,3.47,0.73,5.23,1.09l0.2,0.04l0,0.21c0.05,2.91,0.1,5.86,0.15,8.85l0,0.21l-0.2,0.05
							c-1.72,0.42-3.45,0.84-5.2,1.27l0.19-0.19l0,0.01c-0.48,1.95-1.24,3.81-2.15,5.42l-0.01-0.27c1,1.54,2,3.06,2.93,4.48
							l0.11,0.17l-0.14,0.15c-2.12,2.19-4.21,4.34-6.16,6.36l-0.14,0.15l-0.17-0.11c-1.58-0.96-3.14-1.91-4.57-2.78l0.26,0
							c-1.73,1.05-3.59,1.82-5.36,2.32l0.17-0.19c-0.38,1.81-0.76,3.6-1.1,5.23l-0.04,0.19l-0.19,0c-3.07,0.05-6.07,0.09-8.85,0.13
							l-0.19,0l-0.04-0.18c-0.44-1.81-0.87-3.59-1.26-5.2l0.16,0.16c-1.98-0.49-3.84-1.26-5.42-2.15l0.22-0.01
							c-1.57,1.02-3.1,2.01-4.48,2.92l-0.14,0.09l-0.12-0.11c-2.23-2.16-4.35-4.23-6.35-6.17l-0.11-0.1l0.08-0.13
							c0.98-1.6,1.92-3.14,2.79-4.56l0,0.18c-1.06-1.77-1.81-3.58-2.3-5.34l0.12,0.11c-1.88-0.4-3.65-0.78-5.23-1.12l-0.1-0.02
							l0-0.1c-0.04-3.61-0.07-6.59-0.1-8.85l0-0.07l0.06-0.01c1.68-0.39,2.97-0.69,3.87-0.9c0.43-0.1,0.76-0.17,1-0.22
							C373.11,244.04,373.23,244.02,373.23,244.02z"/>
					</g>
				</g>
			</g>
		</g>
	</g>
	<g>
		<g>
			<g>
				<path class="st2" d="M114.41,219.61c0.53-2.12,1.33-4.14,2.37-6l-3.27-5.01l6.88-7.11l5.11,3.11c1.83-1.1,3.82-1.97,5.92-2.57
					l1.23-5.85l9.9-0.16l1.42,5.81c2.12,0.53,4.14,1.33,6,2.38l5.01-3.27l7.11,6.88l-3.11,5.11c1.1,1.83,1.97,3.82,2.57,5.92
					l5.85,1.23l0.16,9.9l-5.81,1.42c-0.53,2.12-1.33,4.14-2.37,6l3.27,5.01l-6.88,7.11l-5.11-3.11c-1.83,1.1-3.82,1.97-5.92,2.57
					l-1.23,5.85l-9.9,0.16l-1.42-5.81c-2.12-0.53-4.14-1.33-6-2.37l-5.01,3.27l-7.11-6.88l3.11-5.11c-1.1-1.83-1.97-3.82-2.57-5.92
					l-5.85-1.23l-0.16-9.9L114.41,219.61L114.41,219.61z M127.46,225.22c0.1,5.86,4.93,10.54,10.79,10.44
					c5.86-0.1,10.54-4.93,10.44-10.79c-0.1-5.86-4.93-10.54-10.79-10.44C132.04,214.53,127.36,219.36,127.46,225.22z"/>
			</g>
		</g>
	</g>
	<g>
		<g>
			<g>
				<path class="st2" d="M342.47,194.04c0.15-0.61,0.38-1.19,0.69-1.73l-0.95-1.45l1.99-2.05l1.48,0.9c0.53-0.32,1.1-0.57,1.71-0.74
					l0.35-1.69l2.86-0.05l0.41,1.68c0.61,0.15,1.19,0.38,1.73,0.69l1.45-0.95l2.05,1.99l-0.9,1.48c0.32,0.53,0.57,1.1,0.74,1.71
					l1.69,0.35l0.05,2.86l-1.68,0.41c-0.15,0.61-0.38,1.19-0.69,1.73l0.95,1.45l-1.99,2.05l-1.48-0.9c-0.53,0.32-1.1,0.57-1.71,0.74
					l-0.35,1.69l-2.86,0.05l-0.41-1.68c-0.61-0.15-1.19-0.38-1.73-0.69l-1.45,0.94l-2.05-1.99l0.9-1.48
					c-0.32-0.53-0.57-1.1-0.74-1.71l-1.69-0.35l-0.05-2.86L342.47,194.04L342.47,194.04z M346.23,195.66
					c0.03,1.69,1.42,3.04,3.12,3.02c1.69-0.03,3.04-1.42,3.02-3.12c-0.03-1.69-1.42-3.04-3.12-3.02
					C347.56,192.57,346.21,193.97,346.23,195.66z"/>
			</g>
		</g>
	</g>
	<g>
		<g>
			<g>
				<path class="st3" d="M48.58,223.62c0.21-0.85,0.53-1.65,0.95-2.4l-1.31-2l2.75-2.84l2.04,1.24c0.73-0.44,1.53-0.79,2.37-1.03
					l0.49-2.34l3.96-0.06l0.57,2.32c0.85,0.21,1.65,0.53,2.4,0.95l2-1.31l2.84,2.75l-1.24,2.04c0.44,0.73,0.79,1.53,1.03,2.37
					l2.34,0.49l0.06,3.96l-2.32,0.57c-0.21,0.85-0.53,1.65-0.95,2.4l1.31,2l-2.75,2.84l-2.04-1.24c-0.73,0.44-1.52,0.79-2.37,1.03
					l-0.49,2.34l-3.96,0.06l-0.57-2.32c-0.85-0.21-1.65-0.53-2.4-0.95l-2,1.31l-2.84-2.75l1.24-2.04c-0.44-0.73-0.79-1.52-1.03-2.37
					l-2.34-0.49l-0.06-3.96L48.58,223.62L48.58,223.62z M53.8,225.86c0.04,2.34,1.97,4.21,4.31,4.17c2.34-0.04,4.21-1.97,4.17-4.31
					c-0.04-2.34-1.97-4.21-4.31-4.17C55.63,221.59,53.76,223.52,53.8,225.86z"/>
			</g>
		</g>
	</g>
	<g>
		<g>
			<g>
				<path class="st3" d="M408.34,159.92c0.48-1.94,1.22-3.78,2.17-5.49l-2.99-4.58l6.3-6.51l4.68,2.84c1.67-1.01,3.49-1.8,5.42-2.35
					l1.12-5.35l9.05-0.15l1.3,5.31c1.94,0.48,3.78,1.22,5.49,2.17l4.58-2.99l6.51,6.3l-2.84,4.68c1.01,1.67,1.8,3.49,2.35,5.42
					l5.35,1.12l0.15,9.05l-5.31,1.3c-0.48,1.94-1.22,3.78-2.17,5.49l2.99,4.58l-6.3,6.51l-4.68-2.84c-1.67,1.01-3.49,1.8-5.41,2.35
					l-1.12,5.35l-9.05,0.15l-1.29-5.31c-1.94-0.48-3.78-1.22-5.49-2.17l-4.58,2.99l-6.51-6.3l2.84-4.68
					c-1.01-1.67-1.8-3.49-2.35-5.41l-5.35-1.12l-0.15-9.05L408.34,159.92L408.34,159.92z M420.28,165.05
					c0.09,5.36,4.51,9.64,9.87,9.55c5.36-0.09,9.64-4.51,9.55-9.87c-0.09-5.36-4.51-9.64-9.87-9.55
					C424.47,155.26,420.19,159.68,420.28,165.05z"/>
			</g>
		</g>
	</g>
	<g>
		<g>
			<g>
				<path class="st4" d="M62.94,310.83c0.44-1.76,1.1-3.43,1.97-4.97l-2.71-4.15l5.7-5.89l4.23,2.57c1.51-0.91,3.16-1.63,4.9-2.13
					l1.02-4.85l8.2-0.13l1.17,4.81c1.76,0.44,3.43,1.1,4.97,1.97l4.15-2.71l5.89,5.7l-2.57,4.23c0.91,1.51,1.63,3.16,2.13,4.9
					l4.85,1.02l0.13,8.2l-4.81,1.17c-0.44,1.76-1.1,3.43-1.97,4.97l2.71,4.15l-5.7,5.89l-4.23-2.57c-1.51,0.91-3.16,1.63-4.9,2.13
					l-1.02,4.85l-8.2,0.13l-1.17-4.81c-1.76-0.44-3.43-1.1-4.97-1.97l-4.15,2.71l-5.89-5.7l2.57-4.23c-0.91-1.51-1.63-3.16-2.13-4.9
					l-4.85-1.02l-0.13-8.2L62.94,310.83L62.94,310.83z M73.74,315.47c0.08,4.86,4.08,8.73,8.94,8.65c4.86-0.08,8.73-4.08,8.65-8.94
					c-0.08-4.86-4.08-8.73-8.94-8.65C77.54,306.62,73.67,310.62,73.74,315.47z"/>
			</g>
		</g>
	</g>
	<g>
		<g>
			<g>
				<path class="st4" d="M234.89,141.28c0.19-0.77,0.48-1.49,0.86-2.16l-1.18-1.81l2.48-2.56l1.84,1.12
					c0.66-0.4,1.38-0.71,2.13-0.93l0.44-2.11l3.57-0.06l0.51,2.09c0.77,0.19,1.49,0.48,2.16,0.86l1.81-1.18l2.56,2.48l-1.12,1.84
					c0.4,0.66,0.71,1.38,0.93,2.13l2.11,0.44l0.06,3.57l-2.1,0.51c-0.19,0.77-0.48,1.49-0.86,2.16l1.18,1.81l-2.48,2.56l-1.84-1.12
					c-0.66,0.4-1.38,0.71-2.13,0.93l-0.44,2.11l-3.57,0.06l-0.51-2.1c-0.77-0.19-1.49-0.48-2.16-0.86l-1.81,1.18l-2.56-2.48
					l1.12-1.84c-0.4-0.66-0.71-1.38-0.93-2.13l-2.11-0.44l-0.06-3.57L234.89,141.28L234.89,141.28z M239.59,143.3
					c0.03,2.11,1.78,3.8,3.89,3.77c2.11-0.03,3.8-1.78,3.77-3.89s-1.78-3.8-3.89-3.77C241.24,139.44,239.56,141.19,239.59,143.3z"/>
			</g>
		</g>
	</g>
	<g>
		<g>
			<g>
				<g>
					<g>
						<path class="st5" d="M419.96,390.92c4.5-2.32,9.79-2.62,14.78-1.8c2.68,0.44,5.48,1.25,7.3,3.26
							c1.83,2.01,2.17,5.56,0.08,7.29c-1.25,1.03-2.99,1.19-4.61,1.17c-3.91-0.05-8.24-0.73-11.37,1.62
							c-1.78,1.34-2.97,3.57-5.1,4.23c-2.08,0.65-4.44-0.58-5.54-2.46c-1.1-1.88-1.14-4.23-0.63-6.35
							C414.89,397.88,415.43,393.26,419.96,390.92z"/>
					</g>
				</g>
			</g>
			<g>
				<g>
					<g>
						<path class="st5" d="M409.66,371.03c2.75,3.93,8.09,2.63,10.57,0.23c2.48-2.4,3.53-5.87,4.48-9.19
							c2.18-7.57,4.37-15.51,2.76-23.22c-0.48-2.3-1.35-4.6-2.97-6.31c-1.62-1.71-4.11-2.73-6.39-2.13
							c-2.69,0.71-4.37,3.35-5.58,5.86c-3.56,7.38-5.44,15.56-5.47,23.75C407.05,363.86,407.5,367.87,409.66,371.03"/>
					</g>
				</g>
			</g>
			<g>
				<g>
					<g>
						<path class="st5" d="M402.11,376.67c2.99-3.54,3.55-8.71,2.22-13.15c-1.33-4.44-4.33-8.22-7.79-11.3
							c-4.06-3.61-8.82-6.43-13.95-8.23c-2.02-0.71-4.14-1.27-6.27-1.07c-2.13,0.2-4.27,1.29-5.26,3.18
							c-1.47,2.8-0.06,6.2,1.46,8.97c2.68,4.88,5.75,9.55,9.16,13.95c2.75,3.54,5.89,7.03,10.08,8.63c4.18,1.6,8.53,1.41,10.75-1.49
							"/>
					</g>
				</g>
			</g>
			<g>
				<g>
					<g>
						<g>
							<path class="st1" d="M409.47,430.28c0.05,0,0.14-0.63,0.25-1.78c0.13-1.3,0.29-2.93,0.47-4.87c0.23-2.05,0.53-4.49,1.1-7.14
								c0.57-2.65,1.46-5.52,2.6-8.43c1.18-2.89,2.62-5.52,4.31-7.63c1.67-2.11,3.62-3.64,5.44-4.53c1.82-0.9,3.45-1.27,4.58-1.43
								c1.14-0.12,1.78-0.21,1.78-0.26c0-0.05-0.64-0.06-1.81-0.03c-1.16,0.08-2.86,0.37-4.78,1.24c-1.93,0.85-3.99,2.41-5.74,4.56
								c-1.77,2.15-3.26,4.84-4.46,7.78c-1.16,2.96-2.04,5.86-2.58,8.57c-0.54,2.7-0.79,5.17-0.95,7.23
								c-0.15,2.07-0.21,3.74-0.24,4.9C409.41,429.63,409.42,430.27,409.47,430.28z"/>
						</g>
					</g>
				</g>
			</g>
			<g>
				<g>
					<g>
						<g>
							<path class="st1" d="M409.81,426.53c0.03,0,0.04-0.29,0.05-0.83c0-0.62,0-1.41-0.01-2.37c-0.01-2.05,0-5.03,0.11-8.7
								c0.18-7.34,0.81-15.25,2.04-26.39c1.16-10.48,2.71-22.67,4.35-30.6c0.35-1.8,0.71-3.43,1.04-4.85
								c0.32-1.42,0.59-2.65,0.85-3.65c0.22-0.94,0.41-1.7,0.55-2.3c0.12-0.53,0.17-0.81,0.14-0.82c-0.02-0.01-0.12,0.26-0.29,0.78
								c-0.18,0.6-0.41,1.35-0.69,2.27c-0.31,0.98-0.62,2.2-0.97,3.62c-0.37,1.42-0.76,3.03-1.15,4.83
								c-1.62,7.18-3.34,17.23-4.57,28.4c-1.22,11.17-1.78,21.34-1.82,28.7c-0.04,3.68,0.03,6.66,0.13,8.72
								c0.06,0.96,0.11,1.74,0.14,2.37C409.75,426.25,409.78,426.53,409.81,426.53z"/>
						</g>
					</g>
				</g>
			</g>
			<g>
				<g>
					<g>
						<g>
							<path class="st1" d="M409.86,406.92c0.05,0,0.04-0.88-0.02-2.47c-0.09-1.59-0.31-3.89-0.76-6.7
								c-0.47-2.81-1.14-6.14-2.18-9.76c-0.45-1.66-1.51-5.62-4.08-11.55c-3.39-8.03-7.99-14.6-11.99-18.67
								c-0.94-1.08-1.98-1.86-2.82-2.62c-0.43-0.37-0.82-0.73-1.2-1.02c-0.39-0.27-0.76-0.52-1.09-0.75
								c-1.32-0.9-2.06-1.38-2.08-1.33c-0.12,0.16,2.95,1.97,6.83,6.09c3.86,4.11,8.33,10.64,11.69,18.6
								c1.87,4.32,3.18,8.18,4.11,11.45c1.07,3.59,1.78,6.89,2.32,9.67c0.51,2.79,0.81,5.06,0.98,6.64
								C409.7,406.04,409.8,406.92,409.86,406.92z"/>
						</g>
					</g>
				</g>
			</g>
		</g>
		<g>
			<g>
				<g>
					<polygon class="st1" points="390.9,441.51 392.86,468.43 427.45,468.43 429.42,441.51 					"/>
				</g>
			</g>
		</g>
		<g>
			<g>
				<g>
					<rect x="387.56" y="430.9" class="st1" width="45.98" height="10.61"/>
				</g>
			</g>
		</g>
		<g>
			<g>
				<g>
					<polygon class="st5" points="387.56,467.4 387.56,470.34 389.72,470.34 432.78,470.34 432.78,467.4 					"/>
				</g>
			</g>
		</g>
		<g>
			<g>
				<g>
					<polygon class="st1" points="391.84,475.52 389.72,470.34 431.14,470.34 428.67,475.52 					"/>
				</g>
			</g>
		</g>
		<g>
			<g>
				<g>
					<g>
						<path class="st6" d="M428.77,450.31c0.01,0.01-0.05,0.09-0.16,0.25c-0.14,0.18-0.31,0.41-0.52,0.69
							c-0.49,0.63-1.17,1.49-2.01,2.58l-0.09,0.11l-0.09-0.12c-1.27-1.75-2.96-4.09-4.95-6.85h0.28c-1.47,2.08-3.11,4.41-4.87,6.9
							l-0.15,0.22l-0.17-0.2c-1.8-2.14-3.75-4.46-5.78-6.88l0.33,0c-0.1,0.13-0.21,0.26-0.32,0.4c-1.79,2.25-3.53,4.42-5.17,6.48
							l-0.17,0.22l-0.16-0.22c-1.75-2.48-3.39-4.8-4.88-6.9l0.28,0.01c-2.4,2.74-4.44,5.06-6,6.84l-0.11,0.12l-0.08-0.14
							c-0.79-1.33-1.42-2.39-1.88-3.16c-0.2-0.34-0.36-0.62-0.48-0.84c-0.11-0.19-0.16-0.29-0.15-0.3c0.01-0.01,0.08,0.09,0.2,0.27
							c0.14,0.21,0.32,0.48,0.53,0.81c0.48,0.75,1.14,1.8,1.97,3.1l-0.19-0.02c1.54-1.8,3.54-4.15,5.91-6.92l0.15-0.17l0.13,0.19
							c1.5,2.09,3.15,4.4,4.92,6.87l-0.33-0.01c1.64-2.06,3.37-4.24,5.16-6.49c0.11-0.14,0.22-0.27,0.32-0.4l0.16-0.21l0.17,0.2
							c2.02,2.42,3.97,4.75,5.76,6.89l-0.32,0.01c1.78-2.48,3.43-4.79,4.92-6.87l0.14-0.2l0.14,0.2c1.95,2.78,3.61,5.15,4.85,6.92
							l-0.18-0.01c0.88-1.06,1.58-1.9,2.1-2.51c0.23-0.26,0.41-0.48,0.56-0.65C428.7,450.38,428.77,450.3,428.77,450.31z"/>
					</g>
				</g>
			</g>
		</g>
		<g>
			<g>
				<g>
					<g>
						<path class="st6" d="M429.9,441.33c0,0.12-8.67,0.22-19.35,0.22c-10.69,0-19.36-0.1-19.36-0.22c0-0.12,8.66-0.22,19.36-0.22
							C421.23,441.12,429.9,441.21,429.9,441.33z"/>
					</g>
				</g>
			</g>
		</g>
		<g>
			<g>
				<g>
					<g>
						<path class="st6" d="M431.65,470.63c0,0.12-9.42,0.22-21.03,0.22c-11.62,0-21.04-0.1-21.04-0.22s9.42-0.22,21.04-0.22
							C422.23,470.42,431.65,470.52,431.65,470.63z"/>
					</g>
				</g>
			</g>
		</g>
	</g>
	<g>
		<g>
			<path class="st5" d="M67.42,169.17c0-0.04,0.64-0.05,1.79-0.04c0.58,0,1.28,0.01,2.1,0.07c0.82,0.05,1.75,0.08,2.78,0.21
				c2.06,0.19,4.49,0.57,7.17,1.14c2.67,0.6,5.57,1.4,8.54,2.48c2.96,1.1,5.7,2.35,8.12,3.61c2.41,1.29,4.52,2.57,6.21,3.75
				c0.87,0.56,1.6,1.14,2.26,1.63c0.66,0.48,1.21,0.93,1.65,1.3c0.89,0.74,1.36,1.16,1.34,1.19c-0.02,0.03-0.54-0.34-1.47-1.03
				c-0.46-0.35-1.02-0.77-1.7-1.23c-0.67-0.46-1.42-1.02-2.29-1.56c-1.71-1.14-3.82-2.37-6.23-3.63c-2.42-1.23-5.14-2.46-8.08-3.55
				c-2.95-1.06-5.82-1.88-8.46-2.5c-2.65-0.59-5.06-1-7.1-1.24c-1.02-0.15-1.95-0.21-2.76-0.29c-0.81-0.09-1.51-0.13-2.09-0.16
				C68.06,169.26,67.42,169.21,67.42,169.17z"/>
		</g>
	</g>
	<g>
		<g>
			<path class="st5" d="M48.89,280.58c-0.01-0.01,0.17-0.17,0.54-0.45c0.41-0.31,0.94-0.71,1.6-1.22c0.69-0.53,1.56-1.16,2.6-1.84
				c1.03-0.69,2.19-1.51,3.54-2.3c1.33-0.82,2.8-1.71,4.42-2.57c1.6-0.91,3.37-1.76,5.23-2.67c3.75-1.74,7.97-3.46,12.52-4.92
				c4.56-1.43,9-2.46,13.07-3.2c2.04-0.32,3.98-0.66,5.81-0.83c1.82-0.24,3.53-0.35,5.1-0.45c1.56-0.13,2.97-0.13,4.22-0.16
				c1.24-0.04,2.31-0.02,3.18,0.01c0.83,0.03,1.5,0.05,2.01,0.07c0.46,0.02,0.7,0.04,0.7,0.06c0,0.02-0.24,0.03-0.7,0.04
				c-0.51,0.01-1.18,0.02-2.01,0.03c-0.87,0-1.94,0.01-3.18,0.08c-1.24,0.06-2.65,0.08-4.2,0.24c-1.55,0.12-3.25,0.26-5.07,0.51
				c-1.82,0.19-3.75,0.54-5.78,0.87c-4.05,0.76-8.46,1.8-13,3.22c-4.52,1.45-8.73,3.15-12.47,4.85c-1.85,0.9-3.63,1.72-5.23,2.62
				c-1.63,0.84-3.1,1.7-4.44,2.5c-1.36,0.77-2.52,1.56-3.57,2.22c-1.05,0.65-1.93,1.26-2.64,1.77c-0.69,0.47-1.24,0.85-1.66,1.14
				C49.11,280.46,48.9,280.59,48.89,280.58z"/>
		</g>
	</g>
	<g>
		<g>
			<path class="st5" d="M120.76,334.33c-0.02,0,0.01-0.19,0.07-0.54c0.08-0.41,0.18-0.91,0.3-1.53c0.13-0.67,0.31-1.48,0.55-2.41
				c0.24-0.93,0.48-2,0.83-3.16c0.65-2.34,1.54-5.09,2.67-8.09c1.15-3,2.54-6.24,4.19-9.56c1.67-3.31,3.44-6.36,5.15-9.08
				c1.74-2.7,3.4-5.06,4.89-6.98c0.72-0.98,1.43-1.81,2.04-2.56c0.6-0.75,1.15-1.38,1.6-1.88c0.42-0.47,0.77-0.85,1.05-1.16
				c0.24-0.26,0.38-0.39,0.39-0.38c0.01,0.01-0.09,0.17-0.31,0.45c-0.26,0.32-0.58,0.73-0.97,1.22c-0.43,0.52-0.95,1.16-1.53,1.93
				c-0.58,0.76-1.27,1.61-1.97,2.6c-1.44,1.94-3.07,4.31-4.77,7.01c-1.68,2.72-3.43,5.76-5.09,9.05c-1.64,3.3-3.04,6.52-4.2,9.5
				c-1.14,2.98-2.07,5.71-2.76,8.02c-0.37,1.15-0.64,2.21-0.9,3.13c-0.27,0.92-0.47,1.72-0.63,2.38c-0.16,0.61-0.29,1.11-0.4,1.51
				C120.83,334.15,120.78,334.33,120.76,334.33z"/>
		</g>
	</g>
	<g>
		<g>
			<path class="st5" d="M256.62,59.85c0.01,0.01-0.12,0.22-0.39,0.61c-0.3,0.43-0.7,0.99-1.2,1.68c-0.53,0.72-1.17,1.61-1.87,2.67
				c-0.71,1.06-1.55,2.24-2.39,3.6c-0.86,1.35-1.81,2.83-2.74,4.46c-0.98,1.61-1.93,3.38-2.95,5.24c-1.97,3.75-3.98,7.95-5.84,12.47
				c-1.83,4.53-3.32,8.95-4.52,13c-0.57,2.04-1.13,3.97-1.55,5.81c-0.47,1.82-0.83,3.54-1.15,5.11c-0.35,1.56-0.57,3-0.8,4.25
				c-0.24,1.25-0.4,2.33-0.53,3.22c-0.13,0.85-0.24,1.52-0.32,2.04c-0.08,0.47-0.13,0.71-0.15,0.71c-0.02,0,0-0.25,0.04-0.72
				c0.06-0.52,0.13-1.2,0.22-2.05c0.09-0.89,0.23-1.98,0.44-3.24c0.2-1.26,0.4-2.7,0.73-4.27c0.3-1.58,0.64-3.3,1.09-5.14
				c0.4-1.85,0.95-3.79,1.51-5.84c1.19-4.08,2.67-8.52,4.5-13.07c1.86-4.54,3.9-8.75,5.9-12.5c1.03-1.86,2-3.63,3-5.23
				c0.96-1.63,1.92-3.1,2.81-4.44c0.86-1.36,1.73-2.52,2.46-3.57c0.73-1.05,1.39-1.92,1.95-2.63c0.53-0.67,0.95-1.21,1.28-1.63
				C256.44,60.02,256.61,59.83,256.62,59.85z"/>
		</g>
	</g>
	<g>
		<g>
			<path class="st5" d="M346.65,163.74c0,0.02-0.21,0.06-0.6,0.11c-0.45,0.06-1.02,0.13-1.73,0.23c-0.38,0.05-0.8,0.1-1.25,0.15
				c-0.46,0.07-0.94,0.18-1.47,0.27c-1.05,0.21-2.27,0.38-3.57,0.76c-0.66,0.17-1.34,0.35-2.05,0.53c-0.71,0.19-1.43,0.46-2.19,0.71
				c-1.52,0.46-3.08,1.13-4.74,1.8c-3.26,1.46-6.73,3.33-10.11,5.68c-3.36,2.39-6.29,5.02-8.77,7.59c-1.19,1.33-2.36,2.57-3.3,3.85
				c-0.48,0.63-0.98,1.21-1.4,1.82c-0.42,0.61-0.81,1.19-1.2,1.75c-0.8,1.09-1.37,2.18-1.93,3.1c-0.27,0.46-0.54,0.89-0.76,1.29
				c-0.2,0.41-0.39,0.78-0.57,1.12c-0.33,0.63-0.59,1.15-0.8,1.55c-0.19,0.35-0.3,0.53-0.31,0.53c-0.02-0.01,0.06-0.2,0.22-0.57
				c0.19-0.42,0.42-0.95,0.71-1.6c0.16-0.35,0.34-0.74,0.53-1.15c0.21-0.41,0.46-0.85,0.72-1.32c0.54-0.94,1.09-2.04,1.87-3.16
				c0.38-0.57,0.77-1.16,1.18-1.78c0.41-0.62,0.91-1.21,1.39-1.85c0.94-1.3,2.1-2.56,3.29-3.91c2.48-2.61,5.43-5.28,8.82-7.69
				c3.42-2.37,6.93-4.24,10.22-5.69c1.67-0.66,3.25-1.33,4.79-1.77c0.77-0.23,1.49-0.5,2.21-0.68c0.72-0.17,1.41-0.34,2.08-0.5
				c1.31-0.36,2.54-0.5,3.61-0.69c0.53-0.08,1.03-0.18,1.49-0.23c0.46-0.04,0.88-0.07,1.26-0.11c0.71-0.05,1.29-0.1,1.75-0.13
				C346.44,163.72,346.65,163.72,346.65,163.74z"/>
		</g>
	</g>
	<g>
		<g>
			<path class="st5" d="M420.18,223.25c0,0.01-0.09-0.02-0.26-0.07c-0.2-0.07-0.45-0.15-0.75-0.26c-0.69-0.25-1.65-0.59-2.87-1.03
				c-0.63-0.23-1.32-0.48-2.07-0.76c-0.76-0.26-1.6-0.51-2.49-0.8c-1.8-0.56-3.82-1.27-6.11-1.85c-1.14-0.31-2.34-0.64-3.58-0.98
				c-1.25-0.33-2.57-0.6-3.92-0.92c-2.7-0.67-5.64-1.16-8.71-1.72c-6.18-0.98-13.02-1.74-20.24-1.99
				c-7.22-0.19-14.1,0.14-20.33,0.74c-3.11,0.38-6.06,0.68-8.8,1.19c-1.37,0.24-2.7,0.42-3.97,0.67c-1.26,0.26-2.48,0.52-3.64,0.76
				c-2.33,0.44-4.39,1.03-6.21,1.47c-0.91,0.23-1.76,0.43-2.54,0.65c-0.77,0.23-1.47,0.44-2.11,0.63c-1.24,0.36-2.22,0.65-2.93,0.85
				c-0.31,0.09-0.56,0.15-0.77,0.21c-0.17,0.04-0.26,0.06-0.27,0.05c0-0.01,0.08-0.04,0.25-0.11c0.2-0.07,0.44-0.15,0.75-0.26
				c0.7-0.23,1.67-0.55,2.9-0.95c0.64-0.2,1.34-0.43,2.1-0.67c0.77-0.23,1.62-0.44,2.53-0.69c1.82-0.47,3.88-1.09,6.21-1.55
				c1.16-0.25,2.37-0.52,3.64-0.79c1.27-0.27,2.6-0.46,3.97-0.7c2.74-0.52,5.71-0.85,8.82-1.24c6.24-0.63,13.15-0.98,20.39-0.79
				c7.24,0.25,14.11,1.02,20.3,2.03c3.08,0.58,6.02,1.09,8.73,1.78c1.36,0.33,2.68,0.6,3.92,0.95c1.25,0.35,2.44,0.69,3.58,1.01
				c2.3,0.6,4.31,1.34,6.1,1.93c0.89,0.3,1.73,0.57,2.49,0.85c0.75,0.29,1.44,0.56,2.06,0.8c1.2,0.48,2.15,0.85,2.84,1.12
				c0.3,0.12,0.54,0.22,0.73,0.3C420.1,223.2,420.19,223.24,420.18,223.25z"/>
		</g>
	</g>
</g>
<g id="Background_Simple" class="st7">
	<path class="st8" d="M428.57,240.08l-1.91-3.11c-16.09-26.18-45.18-41.97-75.86-40.05c-3.94,0.25-7.87,0.77-11.74,1.59
		c-27.89,5.89-52.15,26.72-62.21,53.39c-5.92,15.69-7.57,33.75-18.79,46.2c-14.61,16.2-39.41,16.71-61.22,16.04
		c-21.81-0.67-46.63-0.1-61.16,16.17c-9.11,10.19-12,24.68-11.26,38.32c1.94,36.12,27.43,68.42,59.85,84.48
		c32.42,16.05,70.58,17.49,106.06,10.43c49.7-9.89,96.97-37.06,125.38-79.03C444.11,342.54,451.3,285.37,428.57,240.08z"/>
	<circle class="st8" cx="149.19" cy="153.41" r="60.26"/>
</g>
<g id="Speech_Bubble">
	<g>
		<g>
			<g>
				<path class="st9" d="M264.75,59.34v28.52c-6.48,6.35-29.85,29.93-29.85,29.93h29.85v22.44c0,7.94,6.4,14.4,14.34,14.48
					l165.48,1.56c8.05,0.08,14.62-6.43,14.62-14.48V59.34c0-8-6.48-14.48-14.48-14.48H279.23
					C271.24,44.86,264.75,51.34,264.75,59.34z"/>
			</g>
			<g>
				<g>
					<path class="st10" d="M264.75,59.34c0,0-0.01-0.55,0.06-1.62c0.13-1.06,0.39-2.66,1.27-4.57c0.41-0.97,1.06-1.96,1.85-2.99
						c0.83-0.99,1.84-2,3.11-2.88c1.28-0.86,2.79-1.59,4.5-2.04c1.71-0.48,3.63-0.53,5.6-0.5c15.89-0.02,38.86-0.06,67.24-0.1
						c14.19-0.01,29.74-0.03,46.43-0.04c8.35-0.01,16.98-0.01,25.87-0.02c4.45,0,8.96,0,13.53-0.01c2.29,0,4.59,0,6.9,0
						c1.16,0,2.32,0,3.49,0c0.59,0.02,1.19,0.04,1.78,0.1c0.59,0.11,1.19,0.14,1.76,0.32c4.67,1.07,8.78,4.63,10.43,9.27
						c0.45,1.14,0.68,2.36,0.84,3.58c0.09,1.24,0.08,2.45,0.08,3.66c0,2.43,0,4.87,0,7.33c0,9.82,0.01,19.85,0.01,30.06
						c0,10.21,0,20.6,0,31.15c0,2.64,0,5.28,0,7.94c0,1.33-0.01,2.66-0.01,3.99c-0.03,1.36-0.21,2.72-0.6,4.04
						c-0.78,2.61-2.28,5.04-4.36,6.85c-1.02,0.93-2.18,1.7-3.42,2.29c-1.23,0.62-2.58,1.01-3.93,1.26c-1.3,0.24-2.64,0.22-3.91,0.21
						l-3.85-0.04c-2.57-0.02-5.12-0.05-7.67-0.07c-5.1-0.05-10.17-0.1-15.2-0.14c-10.07-0.1-19.99-0.19-29.75-0.29
						c-19.52-0.19-38.39-0.37-56.4-0.55c-18.01-0.18-35.18-0.35-51.3-0.51c-4.12-0.02-8.09-1.88-10.74-4.82
						c-2.71-2.92-4.01-6.92-3.86-10.71c0.01-7.52,0.01-14.75,0.02-21.67l0.24,0.24c-10.86-0.01-20.75-0.02-29.85-0.03l-0.5,0
						l0.35-0.35c12.1-12.1,22.1-22.09,29.9-29.89l-0.04,0.1c0.03-9.26,0.05-16.38,0.06-21.21c0.02-2.4,0.03-4.22,0.03-5.46
						C264.73,59.96,264.75,59.34,264.75,59.34s0.02,0.62,0.04,1.85c0.01,1.24,0.02,3.06,0.03,5.46c0.01,4.83,0.04,11.95,0.06,21.21
						l0,0.06l-0.04,0.04c-7.78,7.82-17.74,17.85-29.8,29.98l-0.15-0.35c9.1-0.01,18.99-0.02,29.85-0.03l0.24,0l0,0.24
						c0.01,6.92,0.01,14.15,0.02,21.67c-0.14,3.71,1.12,7.52,3.74,10.34c2.56,2.84,6.38,4.62,10.35,4.63
						c16.12,0.14,33.29,0.3,51.3,0.46c18.01,0.16,36.88,0.34,56.4,0.52c9.76,0.09,19.69,0.18,29.75,0.28
						c5.03,0.05,10.1,0.09,15.2,0.14c2.55,0.02,5.11,0.05,7.67,0.07l3.85,0.04c1.3,0.01,2.55,0.03,3.8-0.2
						c5.25-0.84,9.75-4.89,11.2-9.93c0.37-1.25,0.54-2.56,0.58-3.86c0-1.33,0.01-2.66,0.01-3.99c0-2.66,0-5.3,0-7.94
						c0-10.55,0-20.94,0-31.15c0-10.21,0.01-20.24,0.01-30.06c0-2.46,0-4.9,0-7.33c0.01-1.22,0.01-2.43-0.07-3.6
						c-0.16-1.17-0.37-2.34-0.81-3.43c-1.58-4.45-5.52-7.86-10-8.9c-2.22-0.59-4.57-0.35-6.89-0.4c-2.32,0-4.62,0-6.9,0
						c-4.57,0-9.08,0-13.53-0.01c-8.89-0.01-17.52-0.01-25.87-0.02c-16.69-0.01-32.24-0.03-46.43-0.04
						c-28.38-0.04-51.35-0.08-67.24-0.1c-1.99-0.03-3.85,0-5.55,0.47c-1.69,0.44-3.18,1.15-4.45,1.99
						c-1.26,0.86-2.26,1.85-3.09,2.82c-0.78,1.01-1.44,1.98-1.86,2.94C264.47,57.02,264.89,59.38,264.75,59.34z"/>
				</g>
			</g>
		</g>
		<g>
			<path d="M317.31,124.67h-3.35v4.41h-1.72v-4.41h-9.46v-1.25l8.89-11.12h1.92L305,123.14h7.28v-3.88h1.68v3.88h3.35V124.67z"/>
			<path d="M318.89,120.69c0-5.34,2.8-8.53,6.68-8.53c3.88,0,6.71,3.19,6.71,8.53c0,5.34-2.83,8.53-6.71,8.53
				C321.69,129.22,318.89,126.04,318.89,120.69z M330.51,120.69c0-4.48-2.01-6.95-4.94-6.95c-2.92,0-4.94,2.47-4.94,6.95
				c0,4.48,2.01,6.95,4.94,6.95C328.49,127.64,330.51,125.17,330.51,120.69z"/>
			<path d="M348.99,124.67h-3.35v4.41h-1.72v-4.41h-9.46v-1.25l8.89-11.12h1.92l-8.58,10.83h7.28v-3.88h1.68v3.88h3.35V124.67z"/>
		</g>
		<g>
			<path d="M370.32,127.54v1.53h-11.86v-16.77h11.5v1.53h-9.73v5.97h8.67v1.51h-8.67v6.23H370.32z"/>
			<path d="M380.47,116.38v1.65c-0.14,0-0.29-0.02-0.41-0.02c-2.63,0-4.24,1.68-4.24,4.65v6.42h-1.7v-12.6h1.63v2.47
				C376.54,117.27,378.14,116.38,380.47,116.38z"/>
			<path d="M389.88,116.38v1.65c-0.14,0-0.29-0.02-0.41-0.02c-2.63,0-4.24,1.68-4.24,4.65v6.42h-1.7v-12.6h1.63v2.47
				C385.95,117.27,387.56,116.38,389.88,116.38z"/>
			<path d="M391.55,122.78c0-3.74,2.73-6.4,6.42-6.4c3.69,0,6.4,2.66,6.4,6.4c0,3.74-2.71,6.42-6.4,6.42
				C394.28,129.2,391.55,126.51,391.55,122.78z M402.64,122.78c0-2.95-1.99-4.91-4.67-4.91c-2.68,0-4.69,1.96-4.69,4.91
				c0,2.95,2.01,4.91,4.69,4.91C400.66,127.69,402.64,125.72,402.64,122.78z"/>
			<path d="M414.19,116.38v1.65c-0.14,0-0.29-0.02-0.41-0.02c-2.64,0-4.24,1.68-4.24,4.65v6.42h-1.7v-12.6h1.63v2.47
				C410.26,117.27,411.86,116.38,414.19,116.38z"/>
		</g>
		<g>
			<path d="M303.91,84.5c0-7.87,6.13-13.7,14.49-13.7c8.33,0,14.49,5.79,14.49,13.7c0,7.91-6.17,13.7-14.49,13.7
				C310.04,98.2,303.91,92.37,303.91,84.5z M326.69,84.5c0-5.03-3.56-8.48-8.29-8.48c-4.73,0-8.29,3.44-8.29,8.48
				c0,5.03,3.56,8.48,8.29,8.48C323.13,92.97,326.69,89.53,326.69,84.5z"/>
			<path d="M335.58,87.56c0-6.13,4.73-10.48,11.2-10.48c6.47,0,11.16,4.35,11.16,10.48c0,6.13-4.69,10.48-11.16,10.48
				C340.31,98.04,335.58,93.69,335.58,87.56z M351.96,87.56c0-3.52-2.23-5.64-5.18-5.64c-2.95,0-5.22,2.12-5.22,5.64
				c0,3.52,2.27,5.64,5.22,5.64C349.73,93.2,351.96,91.08,351.96,87.56z"/>
			<path d="M384.04,87.56c0,6.39-4.43,10.48-10.14,10.48c-2.53,0-4.62-0.79-6.13-2.46v9.5h-5.9v-27.7h5.64v2.35
				c1.48-1.78,3.67-2.65,6.39-2.65C379.61,77.08,384.04,81.17,384.04,87.56z M378.06,87.56c0-3.52-2.23-5.64-5.18-5.64
				c-2.95,0-5.18,2.12-5.18,5.64c0,3.52,2.23,5.64,5.18,5.64C375.83,93.2,378.06,91.08,378.06,87.56z"/>
			<path d="M386,95.85l1.97-4.24c1.82,1.17,4.58,1.97,7.08,1.97c2.72,0,3.75-0.72,3.75-1.85c0-3.33-12.3,0.08-12.3-8.06
				c0-3.86,3.48-6.58,9.42-6.58c2.8,0,5.9,0.64,7.83,1.78l-1.97,4.2c-2.01-1.13-4.01-1.51-5.86-1.51c-2.65,0-3.78,0.83-3.78,1.89
				c0,3.48,12.3,0.11,12.3,8.14c0,3.78-3.52,6.47-9.61,6.47C391.38,98.04,387.9,97.1,386,95.85z"/>
			<path d="M407.19,94.6c0-1.93,1.51-3.37,3.63-3.37c2.12,0,3.63,1.44,3.63,3.37c0,1.89-1.51,3.44-3.63,3.44
				C408.7,98.04,407.19,96.49,407.19,94.6z M407.3,71.26h7.04l-1.17,17.29h-4.69L407.3,71.26z"/>
		</g>
	</g>
</g>
<g id="Robot">
	<g>
		<g>
			<path class="st11" d="M190.16,76.64l-0.94,0.93L166.9,55.09l0.94-0.93c5.47-5.43,14.3-5.4,19.73,0.07l2.66,2.68
				C195.66,62.38,195.63,71.21,190.16,76.64z"/>
			<path class="st10" d="M189.22,77.6l-0.02-0.02l-22.33-22.49l0.02-0.02l0.94-0.93c2.64-2.62,6.13-4.06,9.85-4.06
				c0.02,0,0.03,0,0.05,0c3.73,0.01,7.24,1.48,9.87,4.13l2.66,2.68c2.63,2.65,4.07,6.16,4.06,9.9c-0.01,3.73-1.48,7.24-4.13,9.87
				L189.22,77.6z M166.94,55.09l22.28,22.44l0.92-0.91c2.64-2.62,4.1-6.11,4.11-9.83c0.01-3.72-1.42-7.22-4.04-9.86l-2.66-2.68
				c-2.62-2.64-6.11-4.1-9.83-4.11c-0.02,0-0.03,0-0.05,0c-3.7,0-7.18,1.44-9.81,4.04L166.94,55.09z"/>
		</g>
		<g>
			<path class="st11" d="M99.4,121.25l0.97-0.9l21.48,23.27l-0.97,0.9c-5.66,5.23-14.49,4.87-19.71-0.79l-2.56-2.77
				C93.38,135.3,93.73,126.48,99.4,121.25z"/>
			<path class="st10" d="M111.43,148.25c-0.19,0-0.38,0-0.57-0.01c-3.73-0.15-7.18-1.74-9.71-4.49l-2.56-2.77
				c-2.53-2.74-3.84-6.31-3.69-10.04c0.15-3.73,1.74-7.18,4.49-9.71l0.99-0.91l0.02,0.02l21.5,23.29l-0.02,0.02l-0.97,0.9
				C118.29,146.95,114.95,148.25,111.43,148.25z M99.41,121.27c-2.73,2.52-4.32,5.96-4.47,9.67c-0.15,3.72,1.16,7.27,3.68,10
				l2.56,2.77c2.52,2.73,5.96,4.32,9.67,4.47c0.19,0.01,0.38,0.01,0.57,0.01c3.51,0,6.84-1.3,9.43-3.69l0.95-0.88l-21.45-23.24
				L99.41,121.27z"/>
		</g>
		<g>
			
				<rect x="93.19" y="89.53" transform="matrix(0.6278 -0.7784 0.7784 0.6278 -42.5889 110.6803)" class="st11" width="2.5" height="20.69"/>
		</g>
		<g>
			<path class="st10" d="M88.22,88.3c2.19,1.77,2.54,4.98,0.77,7.17c-1.77,2.19-4.98,2.54-7.17,0.77c-2.19-1.77-2.54-4.98-0.77-7.17
				C82.81,86.88,86.03,86.54,88.22,88.3z"/>
		</g>
		<g>
			<path class="st12" d="M201.92,111.59l-46.96,46.63c-6.47,6.42-16.91,6.38-23.34-0.08l-29.48-29.69
				c-6.42-6.47-6.38-16.92,0.08-23.34l46.96-46.63c6.47-6.42,16.91-6.38,23.34,0.08L202,88.25
				C208.42,94.72,208.38,105.16,201.92,111.59z"/>
		</g>
		<g>
			<polygon class="st11" points="150.49,57.18 148.29,48.75 142.54,49.7 140.88,43.61 142.76,43.18 144.07,47.61 149.81,46.83 
				152.21,55.48 			"/>
		</g>
		<g>
			<path class="st10" d="M175.42,91.27l-40.59,40.3c-5.47,5.43-14.31,5.4-19.75-0.07l-1.87-1.88c-5.43-5.47-5.4-14.31,0.07-19.75
				l40.59-40.3c5.47-5.43,14.31-5.4,19.75,0.07l1.87,1.88C180.92,77,180.89,85.84,175.42,91.27z"/>
		</g>
		<g>
			<g>
				<path class="st10" d="M177.66,94.96c0,0,0.12-0.16,0.38-0.45c0.24-0.31,0.68-0.69,1.1-1.32c0.93-1.18,2.14-3.11,2.93-5.87
					c0.38-1.38,0.64-2.96,0.66-4.7c-0.01-1.74-0.26-3.63-0.9-5.56c-0.63-1.93-1.65-3.88-3.12-5.65c-0.39-0.43-0.78-0.86-1.18-1.29
					c-0.42-0.42-0.85-0.85-1.28-1.28c-0.87-0.87-1.75-1.75-2.76-2.52c-2.02-1.55-4.49-2.71-7.22-3.26c-2.73-0.49-5.7-0.42-8.56,0.49
					c-1.43,0.44-2.81,1.1-4.12,1.92c-1.3,0.85-2.48,1.86-3.61,3.02c-2.29,2.28-4.64,4.62-7.05,7.02
					c-9.66,9.6-20.28,20.16-31.43,31.24c-2.71,2.76-4.55,6.34-4.97,10.1c-0.23,1.87-0.17,3.76,0.18,5.59
					c0.35,1.83,1.04,3.56,1.92,5.15c0.43,0.81,0.97,1.54,1.51,2.26c0.59,0.68,1.18,1.36,1.83,2c1.3,1.28,2.5,2.62,3.94,3.62
					c2.83,2.08,6.26,3.18,9.61,3.28c3.36,0.1,6.65-0.77,9.38-2.41c0.71-0.37,1.32-0.88,1.96-1.33c0.6-0.51,1.18-1.02,1.74-1.57
					c1.11-1.1,2.21-2.18,3.28-3.25c4.31-4.26,8.32-8.23,11.98-11.85c7.32-7.22,13.26-13.07,17.37-17.13c2.05-2,3.64-3.56,4.74-4.64
					c0.54-0.52,0.95-0.91,1.24-1.2C177.5,95.09,177.66,94.96,177.66,94.96s-0.13,0.15-0.4,0.43c-0.29,0.29-0.69,0.7-1.21,1.23
					c-1.08,1.09-2.65,2.67-4.67,4.71c-4.09,4.09-9.98,9.98-17.26,17.25c-3.65,3.64-7.65,7.62-11.93,11.9
					c-1.07,1.07-2.16,2.16-3.27,3.26c-0.55,0.55-1.16,1.08-1.77,1.6c-0.66,0.47-1.28,0.99-2.01,1.37c-2.79,1.69-6.18,2.6-9.63,2.5
					c-3.44-0.1-6.97-1.22-9.89-3.35c-1.5-1.03-2.73-2.4-4.01-3.67c-0.65-0.63-1.26-1.34-1.87-2.04c-0.56-0.75-1.12-1.5-1.56-2.33
					c-0.92-1.64-1.62-3.42-1.99-5.3c-0.36-1.88-0.43-3.83-0.19-5.75c0.43-3.87,2.32-7.57,5.12-10.41
					c11.16-11.07,21.79-21.61,31.46-31.21c2.42-2.4,4.78-4.73,7.07-7c1.12-1.15,2.37-2.21,3.69-3.07c1.35-0.83,2.77-1.5,4.23-1.96
					c2.93-0.93,5.98-0.99,8.76-0.48c2.79,0.57,5.31,1.78,7.37,3.36c1.04,0.79,1.93,1.7,2.79,2.57c0.43,0.44,0.86,0.87,1.27,1.29
					c0.4,0.45,0.8,0.89,1.19,1.32c1.49,1.81,2.51,3.81,3.14,5.77c0.63,1.97,0.87,3.89,0.87,5.65c-0.04,1.77-0.32,3.36-0.72,4.76
					c-0.83,2.78-2.08,4.71-3.04,5.88c-0.44,0.62-0.89,1-1.14,1.29C177.8,94.82,177.66,94.96,177.66,94.96z"/>
			</g>
		</g>
		<g>
			<g>
				<g>
					<path class="st13" d="M125.76,126.43c-0.14,0-0.32-4.03-0.39-9c-0.07-4.97-0.01-9,0.13-9c0.14,0,0.32,4.03,0.39,9
						C125.96,122.4,125.9,126.43,125.76,126.43z"/>
				</g>
			</g>
			<g>
				<g>
					<path class="st13" d="M134.47,116.72c0.01,0.14-4.02,0.44-8.99,0.67c-4.97,0.22-9.01,0.29-9.01,0.15
						c-0.01-0.14,4.02-0.44,8.99-0.67C130.43,116.65,134.46,116.58,134.47,116.72z"/>
				</g>
			</g>
		</g>
		<g>
			<g>
				<g>
					<path class="st13" d="M161.4,90.11c-0.14,0-0.32-4.03-0.39-9c-0.07-4.97-0.01-9,0.13-9c0.14,0,0.32,4.03,0.39,9
						C161.6,86.08,161.54,90.11,161.4,90.11z"/>
				</g>
			</g>
			<g>
				<g>
					<path class="st13" d="M170.11,80.4c0.01,0.14-4.02,0.44-8.99,0.67c-4.97,0.22-9.01,0.29-9.01,0.15
						c-0.01-0.14,4.02-0.44,8.99-0.67C166.07,80.32,170.1,80.26,170.11,80.4z"/>
				</g>
			</g>
		</g>
		<g>
			
				<ellipse transform="matrix(0.9999 -0.0155 0.0155 0.9999 -0.6018 2.181)" class="st10" cx="140.64" cy="39.98" rx="5.1" ry="5.1"/>
		</g>
		<g>
			<g>
				<path class="st10" d="M156.51,156.68c-0.03,0.03-0.34-0.23-0.88-0.73c-0.54-0.49-1.32-1.22-2.26-2.12
					c-1.9-1.81-4.49-4.33-7.33-7.14c-2.84-2.81-5.38-5.39-7.19-7.28c-1.81-1.88-2.9-3.12-2.81-3.17c0.04,0.01,0.3,0.25,0.84,0.77
					c0.61,0.58,1.35,1.3,2.23,2.15c1.95,1.92,4.49,4.41,7.3,7.17c2.84,2.81,5.39,5.37,7.22,7.25c0.85,0.88,1.56,1.63,2.15,2.24
					C156.27,156.34,156.53,156.65,156.51,156.68z"/>
			</g>
		</g>
		<g>
			<g>
				<path class="st10" d="M199.82,113.05c-0.03,0.03-0.34-0.23-0.88-0.73c-0.54-0.49-1.32-1.22-2.26-2.12
					c-1.9-1.81-4.49-4.33-7.33-7.14c-2.84-2.81-5.38-5.39-7.19-7.28c-1.81-1.88-2.9-3.12-2.81-3.17c0.04,0.01,0.3,0.25,0.84,0.77
					c0.61,0.58,1.35,1.3,2.23,2.15c1.95,1.92,4.49,4.41,7.3,7.17c2.84,2.81,5.39,5.37,7.22,7.25c0.85,0.88,1.56,1.63,2.15,2.24
					C199.59,112.72,199.85,113.02,199.82,113.05z"/>
			</g>
		</g>
		<g>
			<g>
				
					<rect x="136.8" y="116.58" transform="matrix(0.7014 -0.7128 0.7128 0.7014 -36.5018 151.7588)" class="st10" width="52.15" height="5.72"/>
			</g>
		</g>
		<g>
			<path class="st10" d="M137.6,142.82c-0.02,0.6-0.53,1.07-1.14,1.05c-0.6-0.02-1.07-0.53-1.05-1.14c0.02-0.6,0.53-1.07,1.14-1.05
				C137.15,141.71,137.62,142.22,137.6,142.82z"/>
		</g>
		<g>
			<path class="st10" d="M145.94,151.63c-0.02,0.6-0.53,1.07-1.14,1.05c-0.6-0.02-1.07-0.53-1.05-1.14c0.02-0.6,0.53-1.07,1.14-1.05
				C145.49,150.52,145.96,151.03,145.94,151.63z"/>
		</g>
		<g>
			<path class="st10" d="M186.62,92.91c-0.02,0.6-0.53,1.07-1.14,1.05c-0.6-0.02-1.07-0.53-1.05-1.14c0.02-0.6,0.53-1.07,1.14-1.05
				C186.18,91.79,186.65,92.3,186.62,92.91z"/>
		</g>
		<g>
			<path class="st10" d="M194.96,101.72c-0.02,0.6-0.53,1.07-1.14,1.05c-0.6-0.02-1.07-0.53-1.05-1.14c0.02-0.6,0.53-1.07,1.14-1.05
				C194.52,100.6,194.99,101.11,194.96,101.72z"/>
		</g>
		<g>
			<g>
				<path class="st13" d="M105.45,143.97c-0.07,0.05-0.78-0.91-2.31-2.05c-0.75-0.59-1.7-1.24-2.67-2.09
					c-0.98-0.84-1.89-1.99-2.54-3.34c-1.32-2.73-1.27-5.6-0.78-7.48c0.22-0.95,0.57-1.67,0.81-2.16c0.28-0.47,0.45-0.71,0.48-0.7
					c0.1,0.05-0.57,1.07-0.93,2.93c-0.38,1.83-0.36,4.57,0.89,7.17c1.21,2.65,3.53,4.11,4.98,5.37
					C104.88,142.87,105.51,143.94,105.45,143.97z"/>
			</g>
		</g>
		<g>
			<g>
				<path class="st13" d="M148.92,63.53c0.1,0.1-10.41,10.48-23.48,23.17c-13.07,12.7-23.74,22.91-23.84,22.8
					c-0.1-0.1,10.41-10.48,23.48-23.18C138.15,73.64,148.82,63.43,148.92,63.53z"/>
			</g>
		</g>
		<g>
			<g>
				<path class="st13" d="M83.93,95.87c-0.01,0.06-0.52,0-1.2-0.45c-0.66-0.43-1.47-1.32-1.73-2.56c-0.26-1.24,0.11-2.38,0.54-3.05
					c0.43-0.68,0.88-0.94,0.91-0.9c0.06,0.06-0.27,0.41-0.59,1.07c-0.32,0.65-0.58,1.68-0.36,2.76c0.23,1.08,0.89,1.91,1.45,2.38
					C83.51,95.61,83.95,95.79,83.93,95.87z"/>
			</g>
		</g>
		<g>
			<g>
				<path class="st13" d="M139.46,43.69c-0.01,0.06-0.56-0.01-1.28-0.52c-0.7-0.49-1.53-1.5-1.71-2.85
					c-0.17-1.36,0.38-2.55,0.93-3.2c0.56-0.67,1.08-0.87,1.1-0.82c0.05,0.07-0.37,0.38-0.81,1.04c-0.44,0.65-0.86,1.73-0.71,2.91
					c0.16,1.18,0.84,2.12,1.43,2.63C139,43.42,139.49,43.61,139.46,43.69z"/>
			</g>
		</g>
		<g>
			<g>
				<path class="st13" d="M177.32,51.71c0,0.16-1.95,0.06-4.11,0.93c-2.17,0.84-3.52,2.25-3.63,2.14c-0.11-0.06,1.13-1.72,3.44-2.62
					C175.31,51.24,177.36,51.59,177.32,51.71z"/>
			</g>
		</g>
		<g>
			<g>
				<path class="st13" d="M135.81,158.46c-0.1,0.1-3.44-3.19-7.46-7.35c-4.02-4.16-7.19-7.61-7.09-7.71c0.1-0.1,3.44,3.19,7.46,7.35
					C132.74,154.91,135.91,158.36,135.81,158.46z"/>
			</g>
		</g>
	</g>
	<g>
		<g>
			<g>
				<rect x="208.44" y="398.62" class="st14" width="42.79" height="60.65"/>
			</g>
			<g>
				<path class="st10" d="M256.61,464.47h-53.55v-0.54c0-3.15,2.55-5.7,5.7-5.7h42.14c3.15,0,5.7,2.55,5.7,5.7V464.47z"/>
			</g>
			<g>
				<rect x="198.18" y="464.47" class="st14" width="64.99" height="9.88"/>
			</g>
			<g>
				<g>
					<g>
						<path class="st10" d="M251.02,452.61c0,0.14-9.49,0.26-21.18,0.26c-11.7,0-21.19-0.12-21.19-0.26s9.48-0.26,21.19-0.26
							C241.54,452.35,251.02,452.46,251.02,452.61z"/>
					</g>
				</g>
				<g>
					<g>
						<path class="st10" d="M251.02,445.39c0,0.14-9.49,0.26-21.18,0.26c-11.7,0-21.19-0.12-21.19-0.26c0-0.14,9.48-0.26,21.19-0.26
							C241.54,445.13,251.02,445.25,251.02,445.39z"/>
					</g>
				</g>
				<g>
					<g>
						<path class="st10" d="M251.02,438.31c0,0.14-9.49,0.26-21.18,0.26c-11.7,0-21.19-0.12-21.19-0.26s9.48-0.26,21.19-0.26
							C241.54,438.05,251.02,438.17,251.02,438.31z"/>
					</g>
				</g>
				<g>
					<g>
						<path class="st10" d="M251.02,431.1c0,0.14-9.49,0.26-21.18,0.26c-11.7,0-21.19-0.12-21.19-0.26c0-0.14,9.48-0.26,21.19-0.26
							C241.54,430.84,251.02,430.95,251.02,431.1z"/>
					</g>
				</g>
				<g>
					<g>
						<path class="st10" d="M251.02,424.01c0,0.14-9.49,0.26-21.18,0.26c-11.7,0-21.19-0.12-21.19-0.26c0-0.14,9.48-0.26,21.19-0.26
							C241.54,423.75,251.02,423.87,251.02,424.01z"/>
					</g>
				</g>
				<g>
					<g>
						<path class="st10" d="M251.02,416.8c0,0.14-9.49,0.26-21.18,0.26c-11.7,0-21.19-0.12-21.19-0.26s9.48-0.26,21.19-0.26
							C241.54,416.54,251.02,416.66,251.02,416.8z"/>
					</g>
				</g>
				<g>
					<g>
						<path class="st10" d="M251.02,409.72c0,0.14-9.49,0.26-21.18,0.26c-11.7,0-21.19-0.12-21.19-0.26s9.48-0.26,21.19-0.26
							C241.54,409.46,251.02,409.57,251.02,409.72z"/>
					</g>
				</g>
				<g>
					<g>
						<path class="st10" d="M251.02,402.51c0,0.14-9.49,0.26-21.18,0.26c-11.7,0-21.19-0.12-21.19-0.26s9.48-0.26,21.19-0.26
							C241.54,402.25,251.02,402.36,251.02,402.51z"/>
					</g>
				</g>
			</g>
			<g class="st15">
				<polygon points="208.44,407.07 251.02,405.89 251.02,399.71 208.06,399.71 				"/>
			</g>
		</g>
		<g>
			<g>
				<rect x="275.46" y="398.62" class="st14" width="42.79" height="60.65"/>
			</g>
			<g>
				<path class="st10" d="M323.63,464.47h-53.55v-0.54c0-3.15,2.55-5.7,5.7-5.7h42.14c3.15,0,5.7,2.55,5.7,5.7V464.47z"/>
			</g>
			<g>
				<rect x="265.2" y="464.47" class="st14" width="64.99" height="9.88"/>
			</g>
			<g>
				<g>
					<g>
						<path class="st10" d="M318.04,452.61c0,0.14-9.49,0.26-21.18,0.26c-11.7,0-21.19-0.12-21.19-0.26s9.48-0.26,21.19-0.26
							C308.56,452.35,318.04,452.46,318.04,452.61z"/>
					</g>
				</g>
				<g>
					<g>
						<path class="st10" d="M318.04,445.39c0,0.14-9.49,0.26-21.18,0.26c-11.7,0-21.19-0.12-21.19-0.26c0-0.14,9.48-0.26,21.19-0.26
							C308.56,445.13,318.04,445.25,318.04,445.39z"/>
					</g>
				</g>
				<g>
					<g>
						<path class="st10" d="M318.04,438.31c0,0.14-9.49,0.26-21.18,0.26c-11.7,0-21.19-0.12-21.19-0.26s9.48-0.26,21.19-0.26
							C308.56,438.05,318.04,438.17,318.04,438.31z"/>
					</g>
				</g>
				<g>
					<g>
						<path class="st10" d="M318.04,431.1c0,0.14-9.49,0.26-21.18,0.26c-11.7,0-21.19-0.12-21.19-0.26c0-0.14,9.48-0.26,21.19-0.26
							C308.56,430.84,318.04,430.95,318.04,431.1z"/>
					</g>
				</g>
				<g>
					<g>
						<path class="st10" d="M318.04,424.01c0,0.14-9.49,0.26-21.18,0.26c-11.7,0-21.19-0.12-21.19-0.26c0-0.14,9.48-0.26,21.19-0.26
							C308.56,423.75,318.04,423.87,318.04,424.01z"/>
					</g>
				</g>
				<g>
					<g>
						<path class="st10" d="M318.04,416.8c0,0.14-9.49,0.26-21.18,0.26c-11.7,0-21.19-0.12-21.19-0.26s9.48-0.26,21.19-0.26
							C308.56,416.54,318.04,416.66,318.04,416.8z"/>
					</g>
				</g>
				<g>
					<g>
						<path class="st10" d="M318.04,409.72c0,0.14-9.49,0.26-21.18,0.26c-11.7,0-21.19-0.12-21.19-0.26s9.48-0.26,21.19-0.26
							C308.56,409.46,318.04,409.57,318.04,409.72z"/>
					</g>
				</g>
				<g>
					<g>
						<path class="st10" d="M318.04,402.51c0,0.14-9.49,0.26-21.18,0.26c-11.7,0-21.19-0.12-21.19-0.26s9.48-0.26,21.19-0.26
							C308.56,402.25,318.04,402.36,318.04,402.51z"/>
					</g>
				</g>
			</g>
			<g class="st15">
				<polygon points="275.46,407.07 318.04,405.89 318.04,399.71 275.08,399.71 				"/>
			</g>
		</g>
		<g>
			<g>
				<g>
					<g>
						<path class="st16" d="M340.77,231.92l-1.96,7.74l-17.14-4.33c-0.98-0.25-1.58-1.24-1.33-2.22l1.06-4.19
							c0.25-0.98,1.24-1.58,2.22-1.33L340.77,231.92z"/>
					</g>
					<g class="st15">
						<path d="M340.77,231.92l-1.96,7.74l-17.14-4.33c-0.98-0.25-1.58-1.24-1.33-2.22l1.06-4.19c0.25-0.98,1.24-1.58,2.22-1.33
							L340.77,231.92z"/>
					</g>
					<g>
						<path class="st14" d="M337.71,244.01l-2.94,11.65l-15.97-4.03c-1.63-0.41-2.62-2.06-2.2-3.69l1.45-5.75
							c0.41-1.63,2.06-2.62,3.69-2.2L337.71,244.01z"/>
					</g>
					<g>
						
							<rect x="324.34" y="237.02" transform="matrix(0.2448 -0.9696 0.9696 0.2448 19.1052 506.2643)" class="st14" width="20.39" height="7.7"/>
					</g>
				</g>
				<g>
					<path class="st14" d="M345.68,310.42c0,0,31.95-1.3,29.3-31.91c-2.02-23.45-36.9-23.67-36.9-23.67l8.92-19.49
						c0,0,40.76,3.55,48.81,33.23c9.09,33.54-11.93,60.89-50.13,60.25V310.42z"/>
				</g>
				<g>
					
						<rect x="334.32" y="230.94" transform="matrix(0.9764 0.2158 -0.2158 0.9764 60.8518 -67.724)" class="st10" width="12.44" height="27.68"/>
				</g>
				<g>
					<g>
						<path class="st11" d="M344.16,256.78c-0.03,0.23-2.75-0.24-6.05-0.99c-3.3-0.75-5.94-1.5-5.91-1.64
							c0.03-0.14,2.73,0.38,6.02,1.13c1.65,0.38,3.13,0.74,4.21,1.01c0.43,0.11,0.85,0.23,1.27,0.34
							C344,256.71,344.14,256.76,344.16,256.78z"/>
					</g>
				</g>
				<g>
					<g>
						<path class="st11" d="M345.23,251.91c-0.03,0.23-2.75-0.24-6.05-0.99c-3.3-0.75-5.94-1.5-5.91-1.64
							c0.03-0.14,2.73,0.38,6.02,1.13c1.65,0.38,3.13,0.74,4.21,1.01c0.43,0.11,0.85,0.23,1.27,0.34
							C345.08,251.84,345.22,251.89,345.23,251.91z"/>
					</g>
				</g>
				<g>
					<g>
						<path class="st11" d="M346.52,247.04c-0.03,0.23-2.75-0.24-6.05-0.99c-3.3-0.75-5.94-1.5-5.91-1.64
							c0.03-0.14,2.73,0.38,6.02,1.13c1.65,0.38,3.13,0.74,4.21,1.01c0.43,0.11,0.85,0.23,1.27,0.34
							C346.36,246.98,346.5,247.03,346.52,247.04z"/>
					</g>
				</g>
				<g>
					<g>
						<path class="st11" d="M347.38,242.18c-0.03,0.23-2.75-0.24-6.05-0.99c-3.3-0.75-5.94-1.5-5.91-1.64
							c0.03-0.14,2.73,0.38,6.02,1.13c1.65,0.38,3.13,0.74,4.21,1.01c0.43,0.11,0.85,0.23,1.27,0.34
							C347.23,242.11,347.37,242.16,347.38,242.18z"/>
					</g>
				</g>
				<g>
					<g>
						<path class="st11" d="M348.63,237.62c-0.03,0.23-2.75-0.24-6.05-0.99c-3.3-0.75-5.94-1.5-5.91-1.64
							c0.03-0.14,2.73,0.38,6.02,1.13c1.65,0.38,3.13,0.74,4.21,1.01c0.43,0.11,0.85,0.23,1.27,0.34
							C348.48,237.56,348.62,237.61,348.63,237.62z"/>
					</g>
				</g>
			</g>
			<g>
				<g>
					<path class="st10" d="M352.66,328.63c-0.07,0.01-0.33-1.02-0.65-2.7c-0.32-1.68-0.7-4.02-0.99-6.61
						c-0.29-2.6-0.45-4.96-0.51-6.67c-0.06-1.71-0.04-2.77,0.03-2.77c0.07,0,0.18,1.05,0.34,2.75c0.15,1.7,0.36,4.05,0.66,6.63
						c0.29,2.59,0.61,4.92,0.84,6.61C352.61,327.56,352.73,328.61,352.66,328.63z"/>
				</g>
			</g>
			<g>
				<g>
					<path class="st10" d="M362.59,327.08c-0.14,0.04-1.44-4.23-2.91-9.54c-1.47-5.31-2.55-9.64-2.41-9.68
						c0.14-0.04,1.44,4.23,2.91,9.54C361.65,322.7,362.72,327.04,362.59,327.08z"/>
				</g>
			</g>
			<g>
				<g>
					<path class="st10" d="M375.94,322.3c-0.06,0.04-0.7-0.99-1.7-2.65c-1.08-1.8-2.42-4.04-3.9-6.52
						c-1.49-2.47-2.83-4.71-3.92-6.51c-1-1.67-1.6-2.71-1.54-2.75c0.06-0.04,0.77,0.94,1.85,2.55c1.08,1.62,2.52,3.89,4.05,6.43
						c1.53,2.55,2.85,4.89,3.77,6.6C375.47,321.18,376,322.27,375.94,322.3z"/>
				</g>
			</g>
			<g>
				<g>
					<path class="st10" d="M387.17,313.3c-0.09,0.11-4.07-3.04-8.88-7.03c-4.81-3.99-8.64-7.32-8.55-7.43
						c0.09-0.11,4.07,3.04,8.88,7.03C383.43,309.86,387.26,313.18,387.17,313.3z"/>
				</g>
			</g>
			<g>
				<g>
					<path class="st10" d="M394.4,300.95c-0.06,0.13-4.76-1.7-10.5-4.09c-5.75-2.39-10.36-4.44-10.3-4.57
						c0.06-0.13,4.76,1.7,10.5,4.09C389.84,298.77,394.45,300.82,394.4,300.95z"/>
				</g>
			</g>
			<g>
				<g>
					<path class="st10" d="M397.94,287.63c-0.01,0.07-1.3-0.06-3.37-0.31c-2.22-0.27-5-0.62-8.08-1c-3.08-0.37-5.87-0.71-8.09-0.97
						c-2.07-0.25-3.35-0.43-3.34-0.5c0.01-0.07,1.3-0.02,3.38,0.14c2.08,0.16,4.95,0.44,8.11,0.82c3.16,0.39,6.01,0.81,8.07,1.15
						C396.68,287.29,397.95,287.56,397.94,287.63z"/>
				</g>
			</g>
			<g>
				<g>
					<path class="st10" d="M396.29,273.81c0.02,0.07-1.13,0.47-3.02,1.03c-1.89,0.55-4.52,1.24-7.46,1.86
						c-2.94,0.62-5.63,1.06-7.58,1.31c-1.95,0.26-3.17,0.35-3.18,0.28c-0.01-0.07,1.19-0.29,3.12-0.64c1.93-0.35,4.6-0.84,7.53-1.46
						c2.93-0.62,5.57-1.24,7.48-1.7C395.08,274.02,396.27,273.74,396.29,273.81z"/>
				</g>
			</g>
			<g>
				<g>
					<path class="st10" d="M392.27,260.55c0.06,0.13-4.22,2.42-9.57,5.12c-5.35,2.7-9.74,4.78-9.81,4.65
						c-0.06-0.13,4.22-2.42,9.57-5.12C387.81,262.51,392.2,260.43,392.27,260.55z"/>
				</g>
			</g>
			<g>
				<g>
					<path class="st10" d="M384.03,249.8c0.09,0.11-3.47,3.33-7.96,7.2c-4.49,3.87-8.2,6.91-8.3,6.8c-0.09-0.11,3.47-3.33,7.96-7.2
						C380.22,252.74,383.94,249.69,384.03,249.8z"/>
				</g>
			</g>
			<g>
				<g>
					<path class="st10" d="M370.13,241.82c0.12,0.07-2.13,4.03-5.03,8.84c-2.9,4.81-5.35,8.64-5.47,8.57
						c-0.12-0.07,2.13-4.03,5.03-8.84C367.56,245.58,370.01,241.74,370.13,241.82z"/>
				</g>
			</g>
			<g>
				<g>
					<path class="st10" d="M357.68,236.82c0.14,0.04-1.2,4.46-2.98,9.86c-1.78,5.4-3.34,9.74-3.47,9.7
						c-0.14-0.04,1.2-4.46,2.98-9.86C355.99,241.11,357.54,236.77,357.68,236.82z"/>
				</g>
			</g>
			<g class="st15">
				<g>
					<path d="M372.68,294.18c-2.87,6.35-7.63,9.86-11.59,11.88c-4.49,2.31-7.84,3.05-7.84,3.05c6.11,3.26,14.09,1.31,19.43-3.1
						c5.35-4.4,8.16-11.42,8.35-18.34c0.09-3.28-0.37-6.62-1.73-9.6c-1.36-2.99-3.61-6.12-6.58-7.5c0,0,1.19,2,1.86,5.25
						C375.53,280.42,375.73,287.43,372.68,294.18z"/>
				</g>
			</g>
		</g>
		<g>
			<g>
				<g>
					<path class="st10" d="M137.83,348.12c0.03-0.02,0.38,0.37,0.99,1.1c0.62,0.73,1.46,1.82,2.45,3.21
						c1.99,2.78,4.47,6.82,6.63,11.57c2.14,4.76,3.53,9.3,4.29,12.63c0.39,1.66,0.65,3.02,0.78,3.97c0.14,0.94,0.21,1.47,0.17,1.47
						c-0.04,0.01-0.17-0.51-0.37-1.44c-0.2-0.93-0.51-2.27-0.94-3.92c-0.85-3.29-2.28-7.78-4.41-12.51
						c-2.14-4.72-4.55-8.76-6.45-11.58c-0.95-1.41-1.74-2.54-2.31-3.3C138.1,348.58,137.8,348.15,137.83,348.12z"/>
				</g>
			</g>
			<g>
				<g>
					<path class="st10" d="M133.58,344.58c0.1-0.11,0.57,0.16,1.06,0.59c0.49,0.43,0.81,0.87,0.71,0.98
						c-0.1,0.11-0.57-0.16-1.06-0.59C133.81,345.12,133.49,344.68,133.58,344.58z"/>
				</g>
			</g>
			<g>
				<g>
					<path class="st10" d="M134.56,341.64c0.12-0.07,0.62,0.52,1.1,1.34c0.49,0.81,0.78,1.53,0.66,1.61
						c-0.12,0.07-0.62-0.52-1.1-1.34C134.73,342.43,134.43,341.71,134.56,341.64z"/>
				</g>
			</g>
			<g>
				<g>
					<path class="st11" d="M153.06,382.72c-0.02,0,0.04-0.28,0.15-0.8c0.13-0.57,0.31-1.33,0.54-2.28c0.47-1.98,1.14-4.84,1.91-8.39
						c1.54-7.1,3.41-16.96,4.78-27.96c0.73-5.48,1-10.8,2.28-15.49c0.63-2.34,1.53-4.49,2.68-6.32c1.17-1.82,2.55-3.32,3.99-4.46
						c2.87-2.32,5.75-3.32,7.73-3.77c1-0.22,1.79-0.31,2.32-0.35c0.54-0.03,0.82-0.04,0.82-0.02c0,0.02-0.28,0.06-0.81,0.13
						c-0.53,0.07-1.31,0.2-2.29,0.44c-1.94,0.5-4.76,1.54-7.54,3.86c-1.39,1.14-2.73,2.62-3.85,4.41c-1.11,1.8-1.98,3.91-2.59,6.21
						c-1.24,4.62-1.49,9.93-2.23,15.43c-1.37,11.02-3.31,20.89-4.94,27.97c-0.81,3.54-1.55,6.39-2.07,8.36
						c-0.26,0.94-0.47,1.69-0.63,2.25C153.16,382.46,153.08,382.73,153.06,382.72z"/>
				</g>
			</g>
			<g>
				<g>
					<path class="st10" d="M154.25,303.42c0.11-0.06,0.6,1.7,2.55,3.72c1.9,2.03,5.39,4.07,9.62,4.68
						c4.24,0.59,8.14-0.02,10.91-0.46c1.31-0.23,2.41-0.42,3.29-0.58c0.78-0.13,1.21-0.19,1.22-0.16c0.01,0.03-0.41,0.16-1.18,0.36
						c-0.77,0.19-1.88,0.46-3.27,0.74c-2.76,0.54-6.71,1.22-11.05,0.61c-4.35-0.62-7.93-2.79-9.81-4.94
						c-0.96-1.07-1.56-2.08-1.87-2.81C154.33,303.85,154.22,303.43,154.25,303.42z"/>
				</g>
			</g>
			<g>
				<g>
					<path class="st10" d="M150.45,300.26c0.1-0.1,0.58,0.21,1.07,0.7c0.49,0.49,0.8,0.96,0.7,1.07c-0.1,0.1-0.58-0.21-1.07-0.7
						C150.66,300.84,150.35,300.36,150.45,300.26z"/>
				</g>
			</g>
			<g>
				<g>
					<path class="st10" d="M151.58,298.52c0.12-0.08,0.57,0.43,1.01,1.13c0.44,0.7,0.69,1.33,0.57,1.41
						c-0.12,0.08-0.57-0.43-1.01-1.13C151.72,299.23,151.46,298.59,151.58,298.52z"/>
				</g>
			</g>
			<g>
				<g>
					<path class="st10" d="M154.71,298.29c0.14,0.02,0.17,0.61,0.05,1.31c-0.11,0.7-0.32,1.26-0.46,1.23
						c-0.14-0.02-0.17-0.61-0.05-1.31C154.37,298.82,154.57,298.27,154.71,298.29z"/>
				</g>
			</g>
			<g>
				<g>
					<path class="st11" d="M164.13,337.34c0.04,0,0,0.64-0.09,1.78c-0.09,1.14-0.25,2.79-0.49,4.83c-0.48,4.07-1.31,9.68-2.56,15.81
						c-1.25,6.13-2.69,11.62-3.84,15.55c-0.58,1.97-1.07,3.55-1.44,4.64c-0.36,1.09-0.58,1.68-0.62,1.67
						c-0.03-0.01,0.12-0.63,0.42-1.73c0.32-1.19,0.76-2.76,1.28-4.68c1.06-3.95,2.43-9.44,3.69-15.56c1.25-6.12,2.13-11.7,2.7-15.75
						c0.27-1.96,0.49-3.59,0.66-4.8C164,337.97,164.1,337.34,164.13,337.34z"/>
				</g>
			</g>
			<g>
				<g>
					<path class="st11" d="M181.86,314.19c0.01,0.1-1.43,0.1-3.64,0.69c-2.19,0.57-5.16,1.85-7.72,4.21
						c-2.56,2.36-4.07,5.22-4.81,7.36c-0.76,2.16-0.88,3.59-0.98,3.58c-0.03,0-0.03-0.36,0.04-1.01c0.07-0.64,0.24-1.57,0.59-2.68
						c0.67-2.22,2.17-5.19,4.81-7.63c2.64-2.43,5.72-3.7,7.99-4.19c1.14-0.25,2.07-0.35,2.72-0.37
						C181.5,314.13,181.86,314.16,181.86,314.19z"/>
				</g>
			</g>
			<g>
				<g>
					<path class="st11" d="M157.8,382.51c-0.02,0,0-0.26,0.04-0.75c0.05-0.49,0.12-1.22,0.25-2.14c0.29-1.83,0.66-4.62,2.37-7.58
						c0.85-1.46,2-2.91,2.94-4.61c0.46-0.85,0.86-1.78,1.04-2.78c0.19-1,0.18-2.07,0.09-3.16c-0.16-2.17-0.79-4.51-0.31-6.98
						c0.23-1.23,0.86-2.38,1.6-3.39c0.74-1.02,1.58-1.97,2.25-3.02c0.68-1.05,1.11-2.21,1.12-3.42c0.03-1.2-0.22-2.4-0.48-3.57
						c-0.57-2.35-0.79-4.74-0.57-6.97c0.39-4.48,2.25-8.27,4.39-10.86c2.15-2.62,4.49-4.16,6.14-5.02c0.83-0.44,1.51-0.71,1.97-0.89
						c0.47-0.16,0.71-0.24,0.72-0.23c0.01,0.02-0.23,0.13-0.68,0.32c-0.45,0.2-1.11,0.51-1.92,0.97c-1.61,0.91-3.88,2.47-5.95,5.08
						c-2.07,2.57-3.84,6.29-4.2,10.67c-0.19,2.19,0.02,4.48,0.6,6.82c0.26,1.17,0.53,2.4,0.5,3.7c0,1.3-0.49,2.59-1.2,3.68
						c-0.7,1.1-1.55,2.05-2.27,3.05c-0.73,0.99-1.3,2.04-1.52,3.19c-0.47,2.31,0.13,4.62,0.29,6.84c0.09,1.11,0.09,2.23-0.11,3.29
						c-0.2,1.06-0.63,2.03-1.11,2.9c-0.99,1.74-2.15,3.16-3,4.59c-1.71,2.85-2.14,5.6-2.49,7.42c-0.14,0.88-0.26,1.59-0.35,2.13
						C157.87,382.26,157.82,382.52,157.8,382.51z"/>
				</g>
			</g>
			<g>
				<g>
					<path class="st1" d="M183.04,324.55c0,0.07-0.92-0.12-2.46,0.35c-1.52,0.44-3.61,1.72-5.17,4.13c-1.6,2.39-2.31,5.82-2.69,9.6
						c-0.37,3.8-0.95,7.99-1.83,12.32c-1.77,8.67-4.18,16.32-5.96,21.82c-0.9,2.75-1.66,4.97-2.19,6.49
						c-0.26,0.72-0.47,1.3-0.63,1.75c-0.15,0.4-0.24,0.61-0.25,0.6c-0.02-0.01,0.04-0.22,0.15-0.63c0.14-0.46,0.32-1.05,0.53-1.78
						c0.5-1.61,1.19-3.83,2.03-6.54c1.69-5.53,4.04-13.17,5.8-21.81c0.88-4.32,1.46-8.47,1.86-12.27c0.41-3.79,1.17-7.3,2.86-9.75
						c1.65-2.45,3.84-3.72,5.42-4.12c0.79-0.22,1.44-0.23,1.86-0.23C182.82,324.51,183.04,324.54,183.04,324.55z"/>
				</g>
			</g>
			<g>
				<g>
					<g>
						<g>
							<path class="st14" d="M146.29,378.93h19.37c0,0-11.75,93.29-76.61,92.97l0.83-18.18
								C89.88,453.71,134.01,450.98,146.29,378.93z"/>
						</g>
						<g>
							<g>
								<g>
									<path class="st16" d="M82.68,448.47l-0.14,7.99l-17.67-0.31c-1.01-0.02-1.82-0.85-1.8-1.86l0.08-4.32
										c0.02-1.01,0.85-1.82,1.86-1.8L82.68,448.47z"/>
								</g>
								<g class="st15">
									<path d="M82.68,448.47l-0.14,7.99l-17.67-0.31c-1.01-0.02-1.82-0.85-1.8-1.86l0.08-4.32c0.02-1.01,0.85-1.82,1.86-1.8
										L82.68,448.47z"/>
								</g>
								<g>
									<path class="st14" d="M82.46,460.94l-0.21,12.02l-16.46-0.29c-1.68-0.03-3.02-1.41-2.99-3.09l0.1-5.93
										c0.03-1.68,1.41-3.02,3.09-2.99L82.46,460.94z"/>
								</g>
								<g>
									
										<rect x="68.46" y="454.75" transform="matrix(0.0176 -0.9998 0.9998 0.0176 -381.261 529.1804)" class="st14" width="20.39" height="7.7"/>
								</g>
							</g>
							<g>
								
									<rect x="79.17" y="447.2" transform="matrix(0.9999 -0.0122 0.0122 0.9999 -5.62 1.0764)" class="st10" width="12.44" height="27.68"/>
							</g>
							<g>
								<g>
									<path class="st11" d="M91.64,471.9c0.03,0.23-2.74,0.4-6.11,0.42c-3.38,0.02-6.12-0.11-6.12-0.25
										c0-0.14,2.74-0.25,6.12-0.27c1.69-0.01,3.22,0,4.33,0.03c0.45,0.01,0.88,0.03,1.31,0.04
										C91.48,471.87,91.62,471.89,91.64,471.9z"/>
								</g>
							</g>
							<g>
								<g>
									<path class="st11" d="M91.58,466.92c0.03,0.23-2.74,0.4-6.11,0.42c-3.38,0.02-6.12-0.11-6.12-0.25
										c0-0.14,2.74-0.25,6.12-0.27c1.69-0.01,3.22,0,4.33,0.03c0.45,0.01,0.88,0.03,1.31,0.04
										C91.42,466.89,91.56,466.9,91.58,466.92z"/>
								</g>
							</g>
							<g>
								<g>
									<path class="st11" d="M91.72,461.89c0.03,0.23-2.74,0.4-6.11,0.42c-3.38,0.02-6.12-0.11-6.12-0.25
										c0-0.14,2.74-0.25,6.12-0.27c1.69-0.01,3.22,0,4.33,0.03c0.45,0.01,0.88,0.03,1.31,0.04
										C91.56,461.86,91.7,461.87,91.72,461.89z"/>
								</g>
							</g>
							<g>
								<g>
									<path class="st11" d="M91.46,456.95c0.03,0.23-2.74,0.4-6.11,0.42c-3.38,0.02-6.12-0.11-6.12-0.25
										c0-0.14,2.74-0.25,6.12-0.27c1.69-0.01,3.22,0,4.33,0.03c0.45,0.01,0.88,0.03,1.31,0.04
										C91.29,456.92,91.44,456.94,91.46,456.95z"/>
								</g>
							</g>
							<g>
								<g>
									<path class="st11" d="M91.64,452.23c0.03,0.23-2.74,0.4-6.11,0.42c-3.38,0.02-6.12-0.11-6.12-0.25
										c0-0.14,2.74-0.25,6.12-0.27c1.69-0.01,3.22,0,4.33,0.03c0.45,0.01,0.88,0.03,1.31,0.04
										C91.48,452.2,91.62,452.22,91.64,452.23z"/>
								</g>
							</g>
						</g>
					</g>
					<g>
						<g>
							<path class="st10" d="M98.44,470.98c0.03,0,0.05,0.16,0.06,0.5l0.02,0.58l-0.18-0.57c-0.36-1.16-1.21-4.8-1.9-9.16
								c-0.43-2.69-0.72-5.14-0.89-6.91c-0.16-1.78-0.2-2.88-0.14-2.89c0.07-0.01,0.24,1.08,0.5,2.84c0.26,1.76,0.61,4.19,1.04,6.87
								c0.69,4.34,1.39,8,1.54,9.2l-0.15,0.01C98.38,471.14,98.41,470.98,98.44,470.98z"/>
						</g>
					</g>
					<g>
						<g>
							<path class="st10" d="M107.64,469.21c-0.14,0.04-1.58-4.18-3.22-9.42c-1.64-5.25-2.87-9.53-2.73-9.58
								c0.14-0.04,1.58,4.17,3.22,9.42C106.56,464.88,107.78,469.17,107.64,469.21z"/>
						</g>
					</g>
					<g>
						<g>
							<path class="st10" d="M118.51,464.62c-0.13,0.06-2.27-4-4.77-9.07c-2.51-5.07-4.43-9.23-4.31-9.3c0.13-0.06,2.27,4,4.77,9.07
								C116.71,460.4,118.63,464.56,118.51,464.62z"/>
						</g>
					</g>
					<g>
						<g>
							<path class="st10" d="M128.14,457.42c-0.12,0.09-2.88-3.46-6.18-7.92c-3.3-4.46-5.88-8.14-5.76-8.23
								c0.12-0.09,2.88,3.46,6.18,7.92C125.67,453.66,128.25,457.34,128.14,457.42z"/>
						</g>
					</g>
					<g>
						<g>
							<path class="st10" d="M136.55,449.44c-0.1,0.1-3.32-2.97-7.19-6.85c-3.87-3.89-6.92-7.12-6.82-7.22
								c0.1-0.1,3.32,2.97,7.19,6.85C133.59,446.11,136.65,449.34,136.55,449.44z"/>
						</g>
					</g>
					<g>
						<g>
							<path class="st10" d="M143.48,439.86c-0.04,0.06-0.99-0.46-2.51-1.34c-1.66-0.97-3.68-2.15-5.91-3.46
								c-2.24-1.3-4.26-2.48-5.92-3.45c-1.51-0.89-2.44-1.46-2.4-1.52c0.03-0.06,1.02,0.39,2.58,1.2c1.56,0.81,3.69,1.97,6,3.33
								c2.31,1.35,4.37,2.63,5.84,3.6C142.63,439.17,143.51,439.8,143.48,439.86z"/>
						</g>
					</g>
					<g>
						<g>
							<path class="st10" d="M148.17,430.16c-0.04,0.07-0.95-0.37-2.43-1.09c-1.47-0.72-3.51-1.71-5.77-2.76
								c-2.27-1.05-4.34-1.96-5.84-2.61c-1.5-0.66-2.43-1.07-2.4-1.14c0.02-0.06,1,0.23,2.54,0.8c1.54,0.57,3.65,1.43,5.92,2.48
								c2.28,1.05,4.29,2.1,5.72,2.91C147.34,429.55,148.2,430.1,148.17,430.16z"/>
						</g>
					</g>
					<g>
						<g>
							<path class="st10" d="M153.77,420.78c-0.02,0.07-1.08-0.1-2.77-0.46c-1.7-0.36-4.03-0.94-6.57-1.68
								c-2.54-0.74-4.82-1.5-6.45-2.11c-1.63-0.6-2.61-1.03-2.59-1.1c0.03-0.07,1.05,0.24,2.71,0.75c1.65,0.51,3.94,1.22,6.47,1.96
								c2.54,0.74,4.84,1.36,6.51,1.82C152.75,420.41,153.79,420.71,153.77,420.78z"/>
						</g>
					</g>
					<g>
						<g>
							<path class="st10" d="M156.76,411.32c-0.02,0.14-4.16-0.27-9.25-0.91c-5.09-0.65-9.2-1.29-9.18-1.43
								c0.02-0.14,4.16,0.27,9.25,0.92C152.67,410.53,156.78,411.17,156.76,411.32z"/>
						</g>
					</g>
					<g>
						<g>
							<path class="st10" d="M159.94,402.07c-0.01,0.07-1.03,0.03-2.69-0.08c-1.66-0.12-3.94-0.32-6.47-0.57
								c-2.52-0.25-4.81-0.51-6.45-0.72s-2.66-0.38-2.65-0.45c0.01-0.07,1.04-0.03,2.7,0.09c1.66,0.12,3.94,0.32,6.46,0.57
								c2.52,0.25,4.8,0.51,6.45,0.72C158.93,401.84,159.95,402,159.94,402.07z"/>
						</g>
					</g>
					<g>
						<g>
							<path class="st10" d="M162.39,393.11c0,0.14-4.31,0.4-9.64,0.56c-5.33,0.17-9.65,0.19-9.66,0.04c0-0.14,4.31-0.4,9.64-0.56
								C158.06,392.98,162.39,392.97,162.39,393.11z"/>
						</g>
					</g>
					<g>
						<g>
							<path class="st10" d="M163.4,385.79c0.01,0.07-1,0.24-2.64,0.41c-1.64,0.17-3.91,0.31-6.43,0.33
								c-2.51,0.01-4.79-0.11-6.43-0.26c-1.64-0.15-2.65-0.32-2.64-0.39c0.01-0.08,1.02-0.04,2.66,0.02c1.64,0.06,3.9,0.12,6.4,0.11
								c2.5-0.01,4.76-0.1,6.4-0.17C162.37,385.76,163.39,385.71,163.4,385.79z"/>
						</g>
					</g>
				</g>
				<g>
					<g>
						<path class="st13" d="M147.13,381.7c0.01,0,0.02,0.09,0.02,0.25c0,0.2,0,0.44,0,0.74c-0.02,0.65,0.02,1.61-0.07,2.84
							c-0.1,2.47-0.42,6.04-1.23,10.39c-0.8,4.35-2.17,9.46-4.35,14.89c-2.17,5.43-5.21,11.15-9.14,16.65
							c-3.97,5.47-8.44,10.16-12.91,13.93c-4.47,3.78-8.88,6.7-12.75,8.83c-3.87,2.14-7.16,3.57-9.47,4.45
							c-1.14,0.47-2.07,0.74-2.68,0.96c-0.28,0.09-0.52,0.17-0.7,0.23c-0.16,0.05-0.24,0.07-0.25,0.06c0-0.01,0.07-0.05,0.23-0.11
							c0.18-0.07,0.41-0.17,0.68-0.28c0.6-0.25,1.51-0.55,2.64-1.05c2.28-0.93,5.53-2.41,9.36-4.58c3.83-2.16,8.2-5.09,12.62-8.87
							c4.42-3.77,8.85-8.44,12.8-13.87c3.9-5.46,6.93-11.13,9.11-16.52c2.19-5.39,3.59-10.46,4.43-14.78
							c0.85-4.32,1.23-7.87,1.39-10.33c0.11-1.23,0.11-2.19,0.16-2.83c0.02-0.3,0.03-0.54,0.05-0.74
							C147.11,381.79,147.12,381.7,147.13,381.7z"/>
					</g>
				</g>
			</g>
		</g>
		<g>
			<g>
				<path class="st16" d="M236.92,272.98c0,0-10.73-14.51-35.53-12.36c0,0,25.25-19.4,10.39-39.33c0,0,31.89,9.42,32.25-30.44
					c0,0,5.8,36.96,35.88,26.45c0,0,2.14,29.37,22.95,23.93c-10.07,9.92-19.88,18.65-17.88,31.31"/>
			</g>
			<g class="st17">
				<path class="st13" d="M236.92,272.98c0,0-10.73-14.51-35.53-12.36c0,0,25.25-19.4,10.39-39.33c0,0,31.89,9.42,32.25-30.44
					c0,0,5.8,36.96,35.88,26.45c0,0,2.14,29.37,22.95,23.93c-10.07,9.92-19.88,18.65-17.88,31.31"/>
			</g>
			<g>
				<path class="st16" d="M236.92,272.98c0,0-0.25-16.92-20.18-15.19c0,0,18.53-10.69,6.6-26.7c0,0,25.62,7.57,25.91-24.45
					c0,0,4.66,29.69,28.82,21.25c0,0-2.88,21.54,13.84,17.17c-8.09,7.97-11.37,17.03-9.77,27.2"/>
			</g>
			<g class="st18">
				<path class="st13" d="M236.92,272.98c0,0-0.25-16.92-20.18-15.19c0,0,18.53-10.69,6.6-26.7c0,0,25.62,7.57,25.91-24.45
					c0,0,4.66,29.69,28.82,21.25c0,0-2.88,21.54,13.84,17.17c-8.09,7.97-11.37,17.03-9.77,27.2"/>
			</g>
			<g>
				<g>
					<g>
						<path class="st14" d="M269.65,160.76c0.02,0.01-0.07,0.23-0.24,0.63c-0.2,0.45-0.46,1.04-0.78,1.76
							c-0.35,0.76-0.77,1.69-1.22,2.8c-0.45,1.1-1.01,2.34-1.52,3.74c-0.54,1.4-1.12,2.93-1.67,4.6c-0.6,1.66-1.12,3.46-1.71,5.35
							c-1.09,3.8-2.13,8.03-2.95,12.52c-0.79,4.5-1.29,8.82-1.6,12.76c-0.11,1.97-0.25,3.85-0.27,5.61
							c-0.07,1.76-0.05,3.4-0.03,4.89c-0.01,1.5,0.08,2.85,0.12,4.04c0.03,1.19,0.1,2.21,0.17,3.05c0.05,0.79,0.09,1.43,0.12,1.93
							c0.02,0.44,0.02,0.67,0.01,0.68c-0.02,0-0.06-0.23-0.11-0.67c-0.06-0.49-0.13-1.13-0.22-1.92c-0.1-0.83-0.19-1.86-0.26-3.05
							c-0.07-1.19-0.18-2.54-0.19-4.05c-0.04-1.5-0.08-3.15-0.03-4.91c0-1.77,0.12-3.65,0.22-5.63c0.28-3.96,0.77-8.31,1.57-12.82
							c0.83-4.51,1.88-8.75,3-12.56c0.6-1.89,1.14-3.7,1.76-5.36c0.57-1.67,1.18-3.2,1.74-4.59c0.54-1.4,1.11-2.63,1.59-3.72
							c0.47-1.1,0.92-2.02,1.3-2.77c0.36-0.71,0.65-1.28,0.87-1.72C269.52,160.95,269.63,160.75,269.65,160.76z"/>
					</g>
				</g>
				<g>
					<g>
						<path class="st14" d="M198.07,153.89c-0.12,0.12-2.32-2.54-6-4.49c-3.66-1.99-7.1-2.35-7.06-2.52
							c0.01-0.06,0.87-0.05,2.23,0.21c1.36,0.26,3.21,0.84,5.08,1.84c1.87,1.01,3.37,2.23,4.34,3.21
							C197.64,153.14,198.12,153.85,198.07,153.89z"/>
					</g>
				</g>
				<g>
					<g>
						<path class="st14" d="M205.75,197.42c0.01-0.01,0.16,0.12,0.41,0.39c0.29,0.31,0.66,0.71,1.11,1.19
							c0.97,1.04,2.31,2.59,3.91,4.56c1.61,1.96,3.43,4.37,5.36,7.11c1.91,2.76,3.92,5.85,5.86,9.2c1.93,3.36,3.62,6.64,5.06,9.67
							c1.42,3.04,2.6,5.82,3.5,8.19c0.91,2.37,1.59,4.3,2.01,5.66c0.19,0.63,0.35,1.15,0.48,1.56c0.1,0.36,0.15,0.55,0.13,0.55
							c-0.02,0.01-0.1-0.17-0.23-0.52c-0.15-0.4-0.34-0.91-0.57-1.53c-0.48-1.33-1.21-3.25-2.16-5.59c-0.94-2.35-2.15-5.1-3.59-8.12
							c-1.46-3.01-3.15-6.27-5.07-9.61c-1.94-3.33-3.93-6.43-5.81-9.19c-1.9-2.75-3.69-5.17-5.25-7.16
							c-1.56-1.99-2.85-3.58-3.77-4.65c-0.42-0.51-0.76-0.93-1.04-1.26C205.86,197.6,205.74,197.44,205.75,197.42z"/>
					</g>
				</g>
				<g>
					<g>
						<path class="st14" d="M274.51,202.53c0.02,0.01-0.06,0.17-0.21,0.46c-0.18,0.34-0.41,0.75-0.68,1.25
							c-0.3,0.54-0.67,1.2-1.06,1.99c-0.39,0.78-0.87,1.66-1.32,2.67c-0.96,1.99-1.97,4.42-2.97,7.16
							c-0.96,2.75-1.89,5.82-2.65,9.11c-0.73,3.29-1.2,6.46-1.51,9.36c-0.27,2.9-0.4,5.53-0.38,7.74c-0.03,1.1,0.03,2.1,0.05,2.98
							c0.01,0.88,0.06,1.63,0.1,2.25c0.03,0.57,0.05,1.04,0.07,1.42c0.01,0.33,0.01,0.5-0.01,0.5c-0.02,0-0.05-0.17-0.09-0.49
							c-0.05-0.38-0.1-0.85-0.17-1.42c-0.07-0.62-0.15-1.37-0.19-2.25c-0.05-0.88-0.13-1.88-0.13-2.99
							c-0.06-2.22,0.03-4.86,0.27-7.79c0.28-2.92,0.75-6.12,1.48-9.43c0.76-3.3,1.71-6.39,2.7-9.15c1.03-2.75,2.08-5.18,3.09-7.16
							c0.47-1,0.98-1.87,1.4-2.65c0.41-0.78,0.81-1.43,1.14-1.95c0.3-0.48,0.56-0.88,0.76-1.21
							C274.39,202.66,274.5,202.52,274.51,202.53z"/>
					</g>
				</g>
				<g>
					<g>
						<path class="st14" d="M294.15,206.41c0.05,0.07-0.84,0.72-2.17,1.88c-1.33,1.15-3.08,2.85-4.76,4.95
							c-1.67,2.1-2.94,4.19-3.76,5.74c-0.83,1.56-1.27,2.56-1.34,2.53c-0.06-0.02,0.26-1.08,1.01-2.7c0.75-1.62,1.99-3.77,3.68-5.9
							c1.7-2.13,3.52-3.82,4.93-4.91C293.16,206.9,294.12,206.36,294.15,206.41z"/>
					</g>
				</g>
				<g>
					<g>
						<path class="st14" d="M210.65,231.91c0.03-0.05,1,0.48,2.45,1.53c1.44,1.05,3.33,2.65,5.16,4.67
							c1.83,2.03,3.23,4.07,4.12,5.61c0.9,1.54,1.32,2.56,1.27,2.59c-0.07,0.04-0.61-0.92-1.58-2.39c-0.96-1.48-2.39-3.46-4.19-5.46
							c-1.8-2-3.63-3.62-5-4.73C211.5,232.62,210.6,231.98,210.65,231.91z"/>
					</g>
				</g>
				<g>
					<g>
						<path class="st14" d="M205.58,222.61c-0.08,0.14-2.12-1-4.88-1.7c-2.75-0.72-5.09-0.71-5.09-0.87
							c-0.02-0.13,2.38-0.38,5.22,0.37C203.68,221.13,205.66,222.51,205.58,222.61z"/>
					</g>
				</g>
			</g>
			<g>
				<g>
					<g>
						<path class="st19" d="M185.01,191.31c0.15-0.59,0.37-1.14,0.66-1.66l-0.9-1.38l1.9-1.96l1.41,0.86
							c0.51-0.3,1.05-0.54,1.63-0.71l0.34-1.62l2.73-0.04l0.39,1.6c0.59,0.15,1.14,0.37,1.66,0.66l1.38-0.9l1.96,1.9l-0.86,1.41
							c0.3,0.5,0.54,1.05,0.71,1.63l1.62,0.34l0.04,2.73l-1.6,0.39c-0.15,0.59-0.37,1.14-0.66,1.66l0.9,1.38l-1.9,1.96l-1.41-0.86
							c-0.51,0.3-1.05,0.54-1.63,0.71l-0.34,1.62l-2.73,0.04l-0.39-1.6c-0.59-0.15-1.14-0.37-1.66-0.66l-1.38,0.9l-1.96-1.9
							l0.86-1.41c-0.3-0.5-0.54-1.05-0.71-1.63l-1.62-0.34l-0.04-2.73L185.01,191.31L185.01,191.31z M188.61,192.86
							c0.03,1.62,1.36,2.91,2.98,2.88c1.62-0.03,2.91-1.36,2.88-2.98c-0.03-1.62-1.36-2.91-2.98-2.88
							C189.88,189.9,188.58,191.24,188.61,192.86z"/>
					</g>
				</g>
			</g>
			<g>
				<g>
					<g>
						<path class="st20" d="M299.57,265.2c0.11-0.43,0.27-0.84,0.48-1.22l-0.67-1.02l1.4-1.45l1.04,0.63
							c0.37-0.22,0.78-0.4,1.21-0.52l0.25-1.19l2.02-0.03l0.29,1.18c0.43,0.11,0.84,0.27,1.22,0.48l1.02-0.67l1.45,1.4l-0.63,1.04
							c0.22,0.37,0.4,0.78,0.52,1.21l1.19,0.25l0.03,2.02l-1.18,0.29c-0.11,0.43-0.27,0.84-0.48,1.22l0.67,1.02l-1.4,1.45
							l-1.04-0.63c-0.37,0.22-0.78,0.4-1.21,0.52l-0.25,1.19l-2.02,0.03l-0.29-1.18c-0.43-0.11-0.84-0.27-1.22-0.48l-1.02,0.67
							l-1.45-1.4l0.63-1.04c-0.22-0.37-0.4-0.78-0.52-1.21l-1.19-0.25l-0.03-2.02L299.57,265.2L299.57,265.2z M302.23,266.34
							c0.02,1.19,1,2.15,2.2,2.13c1.19-0.02,2.15-1,2.13-2.2c-0.02-1.19-1-2.15-2.2-2.13C303.16,264.16,302.21,265.15,302.23,266.34
							z"/>
					</g>
				</g>
			</g>
			<g>
				<g>
					<g>
						
							<rect x="274.18" y="182.1" transform="matrix(0.4291 -0.9033 0.9033 0.4291 -7.1111 357.6745)" class="st1" width="10.43" height="4.72"/>
					</g>
					<g>
						<g>
							<path class="st10" d="M275.03,188.16c0.03-0.01,0.48,0.17,1.23,0.49c0.76,0.32,1.82,0.78,3.11,1.36l-0.25,0.09
								c1.12-2.46,2.67-5.79,4.41-9.45c-0.11-0.31,0.15,0.42,0.12,0.35l0,0l0,0l0,0l-0.01,0l-0.02-0.01l-0.04-0.02l-0.07-0.03
								l-0.14-0.07l-0.28-0.13l-0.55-0.26c-0.37-0.17-0.73-0.35-1.08-0.52c-0.71-0.34-1.4-0.67-2.06-0.99l0.33-0.12
								c-1.29,2.69-2.45,4.98-3.28,6.64c-0.39,0.76-0.72,1.41-1,1.95C275.2,187.9,275.06,188.15,275.03,188.16
								c-0.03,0.01,0.06-0.23,0.25-0.68c0.24-0.54,0.52-1.19,0.85-1.96c0.75-1.68,1.83-4.1,3.14-6.89l0.1-0.22l0.23,0.11
								c0.66,0.31,1.36,0.64,2.07,0.97c0.36,0.17,0.72,0.34,1.09,0.51l0.55,0.26l0.28,0.13l0.14,0.07l0.07,0.03l0.04,0.02l0.02,0.01
								l0.01,0l0,0l0,0l0,0c-0.03-0.08,0.23,0.66,0.12,0.35c-1.74,3.66-3.34,6.97-4.54,9.39l-0.08,0.17l-0.17-0.08
								c-1.34-0.66-2.41-1.22-3.12-1.6C275.37,188.38,275,188.17,275.03,188.16z"/>
						</g>
					</g>
				</g>
				<g>
					<g>
						<path class="st1" d="M283.35,175.75c-2.17-1.03-4.77-0.11-5.8,2.06l7.86,3.73C286.45,179.38,285.53,176.78,283.35,175.75z"/>
					</g>
					<g>
						<g>
							<path class="st10" d="M283.35,175.75c0.01-0.02,0.18,0.03,0.48,0.18c0.29,0.16,0.71,0.43,1.12,0.9
								c0.41,0.47,0.82,1.13,0.99,1.99c0.19,0.84,0.12,1.87-0.32,2.84l-0.1,0.22l-0.22-0.1c-1.23-0.58-2.55-1.2-3.94-1.85
								c-1.38-0.67-2.7-1.3-3.92-1.89l-0.22-0.11l0.11-0.21c0.47-0.95,1.22-1.65,2-2.04c0.77-0.4,1.55-0.51,2.17-0.49
								c0.62,0.02,1.1,0.18,1.41,0.3C283.22,175.63,283.37,175.73,283.35,175.75c-0.03,0.08-0.67-0.29-1.85-0.27
								c-0.58,0.02-1.29,0.15-1.98,0.55c-0.69,0.38-1.35,1.03-1.75,1.89l-0.11-0.32c1.23,0.58,2.55,1.2,3.94,1.85
								c1.38,0.66,2.7,1.3,3.92,1.89l-0.32,0.11c0.41-0.86,0.5-1.78,0.36-2.55c-0.13-0.78-0.47-1.42-0.82-1.88
								C284.01,176.09,283.31,175.82,283.35,175.75z"/>
						</g>
					</g>
				</g>
				<g>
					<g>
						<path class="st1" d="M283.45,178.24c0.28-0.99-0.07-2.14-0.86-2.8"/>
					</g>
					<g>
						<g>
							<path class="st10" d="M282.59,175.44c0.07-0.13,0.8,0.27,1.08,1.2c0.29,0.92-0.1,1.67-0.22,1.6
								c-0.14-0.05-0.04-0.7-0.28-1.45C282.96,176.04,282.5,175.56,282.59,175.44z"/>
						</g>
					</g>
				</g>
				<g>
					<g>
						<path class="st10" d="M278.65,180.07c0.08-0.12,1.06,0.39,2.29,0.94c1.23,0.56,2.26,0.94,2.22,1.09
							c-0.03,0.14-1.16-0.04-2.44-0.61C279.44,180.91,278.57,180.18,278.65,180.07z"/>
					</g>
				</g>
				<g>
					<g>
						<path class="st10" d="M278.12,181.17c0.08-0.12,1.06,0.39,2.29,0.94c1.23,0.56,2.26,0.94,2.22,1.09
							c-0.03,0.14-1.16-0.04-2.44-0.61C278.92,182.02,278.04,181.29,278.12,181.17z"/>
					</g>
				</g>
				<g>
					<g>
						<path class="st10" d="M277.6,182.28c0.08-0.12,1.06,0.39,2.29,0.94c1.23,0.56,2.26,0.94,2.22,1.09
							c-0.03,0.14-1.16-0.04-2.44-0.61C278.39,183.12,277.52,182.39,277.6,182.28z"/>
					</g>
				</g>
				<g>
					<g>
						<path class="st10" d="M277.07,183.38c0.08-0.12,1.06,0.39,2.29,0.94c1.23,0.56,2.26,0.94,2.22,1.09
							c-0.03,0.14-1.16-0.04-2.44-0.61C277.87,184.23,276.99,183.5,277.07,183.38z"/>
					</g>
				</g>
				<g>
					<g>
						<path class="st10" d="M276.54,184.49c0.08-0.12,1.06,0.39,2.29,0.94c1.23,0.56,2.26,0.94,2.22,1.09
							c-0.03,0.14-1.16-0.04-2.44-0.61C277.34,185.34,276.46,184.6,276.54,184.49z"/>
					</g>
				</g>
				<g>
					<g>
						<path class="st10" d="M276.02,185.6c0.08-0.12,1.06,0.39,2.29,0.94c1.23,0.56,2.26,0.94,2.22,1.09
							c-0.03,0.14-1.16-0.04-2.44-0.61C276.82,186.44,275.94,185.71,276.02,185.6z"/>
					</g>
				</g>
				<g>
					<g>
						<path class="st10" d="M275.49,186.7c0.08-0.12,1.06,0.39,2.29,0.94c1.23,0.56,2.26,0.94,2.22,1.09
							c-0.03,0.14-1.16-0.04-2.44-0.61C276.29,187.55,275.41,186.82,275.49,186.7z"/>
					</g>
				</g>
			</g>
			<g>
				<g>
					<g>
						
							<rect x="171.84" y="261.9" transform="matrix(0.9107 -0.4131 0.4131 0.9107 -93.3519 96.7411)" class="st1" width="10.43" height="4.72"/>
					</g>
					<g>
						<g>
							<path class="st10" d="M182.77,264.25c-0.03-0.01-0.25-0.44-0.63-1.17c-0.37-0.73-0.89-1.77-1.49-3.05l0.25,0.09
								c-2.44,1.15-5.78,2.7-9.47,4.37c-0.12,0.31,0.16-0.42,0.13-0.34l0,0l0,0l0,0l0,0.01l0.01,0.02l0.02,0.04l0.03,0.07l0.06,0.14
								l0.13,0.28l0.25,0.56c0.17,0.37,0.33,0.73,0.49,1.09c0.32,0.72,0.63,1.42,0.94,2.09l-0.33-0.12
								c2.72-1.22,5.08-2.23,6.79-2.95c0.79-0.33,1.46-0.61,2.02-0.84C182.47,264.34,182.75,264.24,182.77,264.25
								c0.03,0.01-0.2,0.13-0.63,0.35c-0.53,0.26-1.17,0.57-1.92,0.94c-1.66,0.8-4.04,1.95-6.85,3.24l-0.22,0.1l-0.1-0.23
								c-0.31-0.67-0.62-1.36-0.95-2.08c-0.16-0.36-0.33-0.72-0.5-1.09l-0.25-0.56l-0.13-0.28l-0.06-0.14l-0.03-0.07l-0.02-0.04
								l-0.01-0.02l0-0.01l0,0l0,0l0,0c-0.03,0.07,0.25-0.65,0.13-0.35c3.69-1.67,7.05-3.17,9.53-4.24l0.18-0.08l0.07,0.17
								c0.6,1.38,1.05,2.49,1.36,3.24C182.66,263.87,182.81,264.27,182.77,264.25z"/>
						</g>
					</g>
				</g>
				<g>
					<g>
						<path class="st1" d="M168.41,268.36c0.99,2.19,3.57,3.16,5.76,2.17l-3.6-7.93C168.38,263.59,167.41,266.17,168.41,268.36z"/>
					</g>
					<g>
						<g>
							<path class="st10" d="M168.41,268.36c-0.02,0.01-0.12-0.14-0.25-0.45c-0.12-0.31-0.26-0.79-0.28-1.41
								c-0.01-0.62,0.11-1.4,0.52-2.16c0.4-0.77,1.11-1.5,2.07-1.96l0.22-0.1l0.1,0.22c0.57,1.23,1.18,2.56,1.82,3.95
								c0.63,1.4,1.23,2.74,1.78,3.97l0.1,0.22l-0.22,0.09c-0.97,0.42-2,0.48-2.84,0.27c-0.85-0.19-1.51-0.61-1.97-1.03
								c-0.46-0.42-0.73-0.84-0.88-1.14C168.43,268.54,168.38,268.37,168.41,268.36c0.07-0.04,0.32,0.66,1.24,1.4
								c0.46,0.36,1.08,0.71,1.87,0.86c0.77,0.16,1.69,0.08,2.56-0.31l-0.12,0.32c-0.57-1.23-1.18-2.56-1.82-3.96
								c-0.63-1.4-1.22-2.73-1.78-3.97l0.32,0.12c-0.87,0.39-1.53,1.03-1.92,1.72c-0.41,0.68-0.55,1.39-0.58,1.97
								C168.13,267.68,168.49,268.34,168.41,268.36z"/>
						</g>
					</g>
				</g>
				<g>
					<g>
						<path class="st1" d="M169.94,266.4c-0.86,0.57-1.33,1.68-1.15,2.69"/>
					</g>
					<g>
						<g>
							<path class="st10" d="M168.79,269.09c-0.13,0.05-0.44-0.73-0.06-1.61c0.37-0.89,1.15-1.21,1.2-1.08
								c0.08,0.13-0.43,0.56-0.72,1.28C168.9,268.4,168.94,269.06,168.79,269.09z"/>
						</g>
					</g>
				</g>
				<g>
					<g>
						<path class="st10" d="M174.79,268.1c-0.14,0.04-0.55-0.98-1.14-2.2c-0.58-1.22-1.12-2.18-1-2.27
							c0.11-0.08,0.87,0.78,1.47,2.04C174.73,266.94,174.92,268.07,174.79,268.1z"/>
					</g>
				</g>
				<g>
					<g>
						<path class="st10" d="M175.9,267.6c-0.14,0.04-0.55-0.98-1.14-2.2c-0.58-1.22-1.12-2.18-1-2.27c0.11-0.08,0.87,0.78,1.47,2.04
							C175.84,266.44,176.04,267.56,175.9,267.6z"/>
					</g>
				</g>
				<g>
					<g>
						<path class="st10" d="M177.02,267.09c-0.14,0.04-0.55-0.98-1.14-2.2c-0.58-1.22-1.12-2.18-1-2.27
							c0.11-0.08,0.87,0.78,1.47,2.04C176.96,265.93,177.15,267.06,177.02,267.09z"/>
					</g>
				</g>
				<g>
					<g>
						<path class="st10" d="M178.13,266.59c-0.14,0.04-0.55-0.98-1.14-2.2c-0.58-1.22-1.12-2.18-1-2.27
							c0.11-0.08,0.87,0.78,1.47,2.04C178.07,265.42,178.27,266.55,178.13,266.59z"/>
					</g>
				</g>
				<g>
					<g>
						<path class="st10" d="M179.25,266.08c-0.14,0.04-0.55-0.98-1.14-2.2c-0.58-1.22-1.12-2.18-1-2.27
							c0.11-0.08,0.87,0.78,1.47,2.04C179.19,264.92,179.38,266.04,179.25,266.08z"/>
					</g>
				</g>
				<g>
					<g>
						<path class="st10" d="M180.36,265.57c-0.14,0.04-0.55-0.98-1.14-2.2c-0.58-1.22-1.12-2.18-1-2.27
							c0.11-0.08,0.87,0.78,1.47,2.04C180.3,264.41,180.5,265.54,180.36,265.57z"/>
					</g>
				</g>
				<g>
					<g>
						<path class="st10" d="M181.48,265.07c-0.14,0.04-0.55-0.98-1.14-2.2c-0.58-1.22-1.12-2.18-1-2.27
							c0.11-0.08,0.87,0.78,1.47,2.04C181.42,263.91,181.61,265.03,181.48,265.07z"/>
					</g>
				</g>
			</g>
			<g>
				<g>
					<path class="st14" d="M201.52,142.38c0,0,12.11,11.97,15.12,19.43c2.87,7.11,4.77,13.73,4.77,13.73s3.12-5.46,6.63,0
						c3.51,5.46,20.1,71.77,22.83,96.74h10.57c0,0-4.93-41.73-7.27-46.42c-2.34-4.68-4.29-6.24-4.29-6.24s-2.73-17.55-4.68-20.28
						c-1.95-2.73-4.29-3.9-4.29-3.9s-3.51-19.11-8.58-23.01c-5.07-3.9-8.97-1.95-8.97-1.95S220.14,150.03,201.52,142.38z"/>
				</g>
			</g>
			<g>
				<g>
					<path class="st11" d="M300.67,230.96c0.03,0.16-3.3,0.67-7.02,2.38c-3.74,1.68-6.31,3.86-6.41,3.72
						c-0.04-0.05,0.55-0.65,1.63-1.48c1.08-0.83,2.67-1.85,4.57-2.72c1.9-0.86,3.72-1.39,5.05-1.65
						C299.82,230.94,300.66,230.9,300.67,230.96z"/>
				</g>
			</g>
			<g>
				<g>
					<path class="st11" d="M300.26,228.86c0.05,0.16-3.33,1.05-7.05,3.13c-3.74,2.05-6.28,4.45-6.39,4.32
						c-0.04-0.05,0.53-0.7,1.6-1.63c1.07-0.93,2.65-2.1,4.54-3.15c1.89-1.05,3.72-1.77,5.07-2.18
						C299.38,228.94,300.24,228.8,300.26,228.86z"/>
				</g>
			</g>
			<g>
				<g>
					<path class="st11" d="M298.21,233.97c0,0.16-2.21,0.19-4.79,0.94c-2.59,0.72-4.49,1.85-4.57,1.72
						c-0.08-0.1,1.75-1.47,4.43-2.22C295.95,233.64,298.23,233.84,298.21,233.97z"/>
				</g>
			</g>
			<g>
				<path class="st10" d="M274.88,272.17c-1.76-14.01,2.83-30.41,14.03-38.28l2.67,2.17c0,0-13.92,8.28-12.9,36.21"/>
			</g>
			<g>
				<g>
					<g>
						<path class="st11" d="M217.41,252c0.04,0.16-2.6,0.67-5.37,2.39c-2.78,1.69-4.43,3.82-4.55,3.71c-0.11-0.05,1.4-2.4,4.28-4.15
							C214.63,252.17,217.41,251.88,217.41,252z"/>
					</g>
				</g>
				<g>
					<g>
						<path class="st11" d="M217.13,250.76c0.04,0.14-2.43,0.98-5.44,2.11c-3.02,1.12-5.43,2.11-5.49,1.97
							c-0.06-0.13,2.28-1.33,5.31-2.46C214.54,251.24,217.1,250.62,217.13,250.76z"/>
					</g>
				</g>
				<g>
					<path class="st10" d="M247.94,275.62l-4.84-1.26c0.74-2.83,0.25-6-1.3-8.48c-0.63-1-1.43-1.9-2.36-2.65
						c-0.5,3.17-2.5,5.96-5.31,7.12c-2.07,0.86-4.56,0.71-6.65-0.41c-1.92-1.03-3.25-2.75-3.63-4.73c-0.59-3.02,1-6.32,3.88-8.02
						c1.08-0.64,2.33-1.06,3.66-1.25c-0.12-0.1-0.24-0.19-0.36-0.29c-4.21-3.22-10.7-3.4-15.08-0.41l-2.82-4.13
						c6.18-4.22,14.99-3.98,20.93,0.57c1.91,1.46,3.4,3.27,4.35,5.22c3.11,1.25,5.86,3.49,7.63,6.32
						C248.31,266.85,249.02,271.48,247.94,275.62z M233.04,260.83c-1.06,0-2.01,0.23-2.76,0.67c-1.03,0.61-1.7,1.82-1.52,2.75
						c0.14,0.71,0.81,1.13,1.09,1.29c0.76,0.41,1.69,0.49,2.37,0.2c1.51-0.63,2.53-2.64,2.31-4.58c-0.01-0.07-0.02-0.13-0.03-0.2
						C234,260.87,233.51,260.83,233.04,260.83z"/>
				</g>
			</g>
			<g>
				<g>
					<path class="st14" d="M207.34,182.76c0.02-0.03,0.49,0.22,1.34,0.71c0.85,0.48,2.05,1.24,3.48,2.24
						c1.44,0.99,3.09,2.27,4.84,3.77c1.74,1.52,3.58,3.29,5.38,5.26c1.79,1.99,3.36,3.99,4.7,5.88c1.32,1.9,2.43,3.67,3.27,5.2
						c0.85,1.53,1.49,2.79,1.88,3.69c0.4,0.89,0.6,1.39,0.57,1.41c-0.03,0.02-0.3-0.45-0.75-1.32c-0.44-0.87-1.13-2.1-2.01-3.59
						c-0.88-1.5-2.01-3.23-3.34-5.1c-1.35-1.85-2.92-3.84-4.69-5.81c-1.78-1.96-3.6-3.72-5.31-5.25c-1.73-1.51-3.34-2.81-4.74-3.84
						c-1.4-1.03-2.56-1.83-3.37-2.36C207.76,183.1,207.32,182.79,207.34,182.76z"/>
				</g>
			</g>
		</g>
		<g>
			<g>
				<path class="st10" d="M191.27,344.69h-0.85c-4.95,0-8.96-4.01-8.96-8.96v-32.58c0-4.95,4.01-8.96,8.96-8.96h0.85V344.69z"/>
			</g>
			<g>
				<path class="st10" d="M336.8,344.69h-0.94v-50.51h0.94c4.9,0,8.88,3.98,8.88,8.88v32.76
					C345.68,340.72,341.71,344.69,336.8,344.69z"/>
			</g>
			<g>
				<path class="st12" d="M323.96,394.31H202.81c-7.8,0-14.12-6.32-14.12-14.12v-81.75c0-7.8,6.32-14.12,14.12-14.12h121.16
					c7.8,0,14.12,6.32,14.12,14.12v81.75C338.08,387.99,331.76,394.31,323.96,394.31z"/>
			</g>
			<g>
				<path class="st13" d="M282.39,296.01c-18.91,0-34.24,15.33-34.24,34.24h68.47C316.63,311.33,301.3,296.01,282.39,296.01z"/>
			</g>
			<g>
				<g>
					<g>
						<path class="st1" d="M309.97,328.58c1.44-0.01,2.74-0.01,3.68,0.01c0.94,0.02,1.53,0.05,1.53,0.1c0,0.04-0.58,0.08-1.52,0.11
							c-0.94,0.03-2.24,0.04-3.68,0.04c-1.44-0.01-2.74-0.02-3.68-0.03c-0.47-0.01-0.85-0.02-1.12-0.03
							c-0.26-0.01-0.41-0.02-0.41-0.04c0-0.01,0.15-0.03,0.41-0.04c0.26-0.01,0.64-0.02,1.12-0.04
							C307.23,328.63,308.53,328.6,309.97,328.58z"/>
					</g>
				</g>
				<g>
					<g>
						<path class="st1" d="M307.58,318.23c2.6-1.24,4.76-2.11,4.83-1.96c0.07,0.16-2,1.24-4.62,2.42c-2.62,1.18-4.79,2.05-4.83,1.95
							C302.92,320.55,304.98,319.47,307.58,318.23z"/>
					</g>
				</g>
				<g>
					<g>
						<path class="st1" d="M301.16,309.77c1.9-2.16,3.54-3.82,3.67-3.71c0.13,0.11-1.35,1.93-3.29,4.05
							c-1.94,2.12-3.59,3.78-3.67,3.7C297.79,313.74,299.26,311.93,301.16,309.77z"/>
					</g>
				</g>
				<g>
					<g>
						<path class="st1" d="M292,304.36c0.98-2.71,1.9-4.85,2.06-4.79c0.16,0.06-0.55,2.28-1.58,4.97c-1.03,2.68-1.95,4.83-2.06,4.79
							C290.32,309.29,291.02,307.07,292,304.36z"/>
					</g>
				</g>
				<g>
					<g>
						<path class="st1" d="M281.51,302.58c-0.03-2.88,0.09-5.21,0.25-5.21c0.17,0,0.28,2.33,0.25,5.21
							c-0.03,2.87-0.14,5.21-0.25,5.21C281.65,307.79,281.53,305.45,281.51,302.58z"/>
					</g>
				</g>
				<g>
					<g>
						<path class="st1" d="M271.05,304.54c-1.03-2.69-1.74-4.91-1.58-4.97c0.16-0.06,1.08,2.09,2.06,4.79
							c0.98,2.7,1.68,4.93,1.58,4.97C273,309.37,272.08,307.22,271.05,304.54z"/>
					</g>
				</g>
				<g>
					<g>
						<path class="st1" d="M261.98,310.11c-1.95-2.12-3.42-3.93-3.29-4.05c0.13-0.12,1.77,1.54,3.67,3.7
							c1.9,2.16,3.37,3.97,3.29,4.04C265.57,313.89,263.93,312.23,261.98,310.11z"/>
					</g>
				</g>
				<g>
					<g>
						<path class="st1" d="M255.73,318.7c-2.63-1.18-4.69-2.26-4.62-2.42c0.07-0.16,2.24,0.72,4.83,1.95
							c2.6,1.24,4.66,2.32,4.62,2.42C260.51,320.75,258.35,319.87,255.73,318.7z"/>
					</g>
				</g>
				<g>
					<g>
						<path class="st1" d="M253.55,328.83c-1.44,0-2.74-0.01-3.68-0.04c-0.94-0.03-1.53-0.07-1.52-0.11c0-0.04,0.58-0.08,1.53-0.1
							c0.94-0.02,2.24-0.02,3.68-0.01c1.44,0.03,2.74,0.05,3.68,0.07c0.47,0.02,0.85,0.03,1.12,0.04c0.26,0.01,0.41,0.03,0.41,0.04
							c0,0.01-0.15,0.03-0.41,0.04c-0.26,0.01-0.65,0.02-1.12,0.03C256.29,328.81,254.98,328.82,253.55,328.83z"/>
					</g>
				</g>
			</g>
			<g>
				<path class="st13" d="M225.31,302c0,2.51-2.03,4.54-4.54,4.54c-2.51,0-4.54-2.03-4.54-4.54c0-2.51,2.03-4.54,4.54-4.54
					C223.27,297.46,225.31,299.49,225.31,302z"/>
			</g>
			<g>
				<path class="st11" d="M225.31,315.7c0,2.51-2.03,4.54-4.54,4.54c-2.51,0-4.54-2.03-4.54-4.54c0-2.51,2.03-4.54,4.54-4.54
					C223.27,311.16,225.31,313.19,225.31,315.7z"/>
			</g>
			<g>
				<g>
					<path class="st10" d="M311.43,384.82c0,0-0.01-0.3-0.02-0.85c0-0.57-0.01-1.39-0.02-2.45c-0.01-2.16-0.03-5.32-0.05-9.38
						c-0.02-8.13-0.06-19.85-0.1-34.29l0.19,0.19c-24.47,0.02-57.25,0.04-93.17,0.07h-0.01l0.26-0.26
						c-0.01,16.57-0.01,32.46-0.02,46.98l-0.25-0.25c27.17,0.05,50.43,0.09,66.92,0.12c8.25,0.03,14.8,0.05,19.3,0.07
						c2.24,0.01,3.97,0.02,5.16,0.03c0.58,0.01,1.02,0.01,1.34,0.01C311.27,384.81,311.43,384.82,311.43,384.82
						s-0.14,0.01-0.43,0.01c-0.31,0-0.74,0.01-1.31,0.01c-1.18,0.01-2.89,0.02-5.11,0.03c-4.49,0.02-11.03,0.04-19.25,0.07
						c-16.53,0.03-39.85,0.07-67.08,0.12l-0.25,0l0-0.25c0-14.52-0.01-30.41-0.02-46.98l0-0.26h0.26h0.01
						c35.93,0.03,68.7,0.05,93.17,0.07l0.19,0l0,0.19c-0.04,14.5-0.08,26.26-0.1,34.41c-0.02,4.04-0.04,7.18-0.05,9.34
						c-0.01,1.05-0.02,1.86-0.02,2.42C311.44,384.55,311.43,384.82,311.43,384.82z"/>
				</g>
			</g>
			<g>
				<path class="st10" d="M316.43,400.92h-106.1c-3.44,0-6.23-2.79-6.23-6.23v-0.59h118.56v0.59
					C322.67,398.13,319.88,400.92,316.43,400.92z"/>
			</g>
			<g>
				<g class="st15">
					<g>
						<path d="M301.47,344.43c-0.18,1.28,0.71,2.6,1.94,2.98c1.23,0.38,2.67-0.18,3.39-1.24c0.72-1.07,0.71-2.56,0.05-3.66
							c0.02,0.84-0.23,1.71-0.78,2.34c-0.55,0.64-1.42,1.01-2.25,0.89c-0.83-0.13-1.58-0.81-1.7-1.64"/>
					</g>
				</g>
				<g>
					<g>
						<g>
							<path class="st1" d="M306.81,343.32c0,1.53-1.24,2.76-2.76,2.76c-1.53,0-2.76-1.24-2.76-2.76c0-1.53,1.24-2.76,2.76-2.76
								C305.57,340.56,306.81,341.8,306.81,343.32z"/>
						</g>
						<g>
							<g>
								<path class="st10" d="M306.81,343.32c-0.04,0-0.06-0.25-0.18-0.65c-0.13-0.4-0.42-0.97-1.02-1.4
									c-0.58-0.43-1.52-0.66-2.42-0.32c-0.89,0.32-1.65,1.27-1.64,2.37c-0.01,1.1,0.75,2.05,1.64,2.37
									c0.9,0.34,1.84,0.11,2.42-0.32c0.6-0.43,0.89-1,1.02-1.4C306.76,343.57,306.77,343.32,306.81,343.32
									c0.03,0,0.09,0.25,0.01,0.7c-0.07,0.44-0.33,1.11-0.99,1.64c-0.63,0.53-1.73,0.86-2.81,0.48c-1.07-0.35-2.01-1.48-2-2.82
									c-0.01-1.34,0.93-2.47,2-2.82c1.08-0.38,2.17-0.06,2.81,0.48c0.66,0.53,0.92,1.2,0.99,1.64
									C306.9,343.07,306.84,343.32,306.81,343.32z"/>
							</g>
						</g>
					</g>
					<g>
						<g>
							<path class="st10" d="M305.32,342.14c0.05,0.14-0.61,0.48-1.21,1.12c-0.62,0.63-0.93,1.29-1.08,1.25
								c-0.14-0.03-0.01-0.88,0.7-1.61C304.44,342.16,305.29,342,305.32,342.14z"/>
						</g>
					</g>
					<g>
						<g>
							<path class="st10" d="M305.32,344.18c-0.12,0.08-0.59-0.42-1.26-0.87c-0.67-0.46-1.31-0.7-1.28-0.85
								c0.02-0.14,0.8-0.11,1.58,0.42C305.13,343.4,305.44,344.12,305.32,344.18z"/>
						</g>
					</g>
				</g>
			</g>
			<g>
				<g class="st15">
					<g>
						<path d="M302.76,378.63c-0.18,1.28,0.71,2.6,1.94,2.98c1.23,0.38,2.67-0.18,3.39-1.24c0.72-1.07,0.71-2.56,0.05-3.66
							c0.02,0.84-0.23,1.71-0.78,2.34c-0.55,0.64-1.42,1.01-2.25,0.89c-0.83-0.13-1.58-0.81-1.7-1.64"/>
					</g>
				</g>
				<g>
					<g>
						<g>
							<circle class="st1" cx="305.35" cy="377.51" r="2.76"/>
						</g>
						<g>
							<g>
								<path class="st10" d="M308.11,377.51c-0.04,0-0.06-0.25-0.18-0.65c-0.13-0.4-0.42-0.97-1.02-1.4
									c-0.58-0.43-1.52-0.66-2.42-0.32c-0.89,0.32-1.65,1.27-1.64,2.37c-0.01,1.1,0.75,2.05,1.64,2.37
									c0.9,0.34,1.84,0.11,2.42-0.32c0.6-0.43,0.89-1,1.02-1.4C308.05,377.76,308.06,377.51,308.11,377.51
									c0.03,0,0.09,0.25,0.01,0.7c-0.08,0.44-0.33,1.11-0.99,1.64c-0.63,0.53-1.73,0.86-2.81,0.48c-1.07-0.35-2.01-1.48-2-2.82
									c-0.01-1.34,0.93-2.47,2-2.82c1.08-0.38,2.17-0.06,2.81,0.48c0.66,0.53,0.92,1.2,0.99,1.64
									C308.2,377.27,308.14,377.52,308.11,377.51z"/>
							</g>
						</g>
					</g>
					<g>
						<g>
							<path class="st10" d="M306.62,376.33c0.05,0.14-0.61,0.48-1.21,1.12c-0.62,0.63-0.93,1.29-1.08,1.25
								c-0.14-0.03-0.01-0.88,0.7-1.61C305.74,376.35,306.59,376.2,306.62,376.33z"/>
						</g>
					</g>
					<g>
						<g>
							<path class="st10" d="M306.62,378.37c-0.12,0.08-0.59-0.42-1.26-0.87c-0.67-0.46-1.31-0.7-1.28-0.85
								c0.02-0.14,0.8-0.11,1.57,0.42C306.42,377.59,306.74,378.31,306.62,378.37z"/>
						</g>
					</g>
				</g>
			</g>
			<g>
				<g class="st15">
					<g>
						<path d="M222.38,344.39c-0.18,1.28,0.71,2.6,1.94,2.98c1.23,0.38,2.67-0.18,3.39-1.24c0.72-1.07,0.71-2.56,0.05-3.66
							c0.02,0.84-0.23,1.71-0.78,2.34c-0.55,0.64-1.42,1.01-2.25,0.89c-0.83-0.13-1.58-0.81-1.7-1.64"/>
					</g>
				</g>
				<g>
					<g>
						<g>
							<circle class="st1" cx="224.96" cy="343.28" r="2.76"/>
						</g>
						<g>
							<g>
								<path class="st10" d="M227.73,343.28c-0.04,0-0.06-0.25-0.18-0.65c-0.13-0.4-0.42-0.97-1.02-1.4
									c-0.58-0.43-1.52-0.66-2.42-0.32c-0.89,0.32-1.65,1.27-1.64,2.37c-0.01,1.1,0.75,2.05,1.64,2.37
									c0.9,0.34,1.84,0.11,2.42-0.32c0.6-0.43,0.89-1,1.02-1.4C227.67,343.53,227.68,343.28,227.73,343.28
									c0.03,0,0.09,0.25,0.01,0.7c-0.08,0.44-0.33,1.11-0.99,1.64c-0.63,0.53-1.73,0.86-2.81,0.48c-1.07-0.35-2.01-1.48-2-2.82
									c-0.01-1.34,0.93-2.47,2-2.82c1.08-0.38,2.17-0.06,2.81,0.48c0.66,0.53,0.92,1.2,0.99,1.64
									C227.82,343.03,227.75,343.28,227.73,343.28z"/>
							</g>
						</g>
					</g>
					<g>
						<g>
							<path class="st10" d="M226.24,342.1c0.05,0.14-0.61,0.48-1.21,1.12c-0.62,0.63-0.93,1.29-1.08,1.25
								c-0.14-0.03-0.01-0.88,0.7-1.61C225.36,342.12,226.21,341.96,226.24,342.1z"/>
						</g>
					</g>
					<g>
						<g>
							<path class="st10" d="M226.24,344.14c-0.12,0.08-0.59-0.42-1.26-0.87c-0.67-0.46-1.31-0.7-1.28-0.85
								c0.02-0.14,0.8-0.11,1.57,0.42C226.04,343.36,226.36,344.07,226.24,344.14z"/>
						</g>
					</g>
				</g>
			</g>
			<g>
				<g class="st15">
					<g>
						<path d="M221.8,378.29c-0.18,1.28,0.71,2.6,1.94,2.98c1.23,0.38,2.67-0.18,3.39-1.24c0.72-1.07,0.71-2.56,0.05-3.66
							c0.02,0.84-0.23,1.71-0.78,2.34c-0.55,0.64-1.42,1.01-2.25,0.89c-0.83-0.13-1.58-0.81-1.7-1.64"/>
					</g>
				</g>
				<g>
					<g>
						<g>
							<circle class="st1" cx="224.38" cy="377.17" r="2.76"/>
						</g>
						<g>
							<g>
								<path class="st10" d="M227.14,377.17c-0.04,0-0.06-0.25-0.18-0.65c-0.13-0.4-0.42-0.97-1.02-1.4
									c-0.58-0.43-1.52-0.66-2.42-0.32c-0.89,0.32-1.65,1.27-1.64,2.37c-0.01,1.1,0.75,2.05,1.64,2.37
									c0.9,0.34,1.84,0.11,2.42-0.32c0.6-0.43,0.89-1,1.02-1.4C227.09,377.42,227.1,377.17,227.14,377.17
									c0.03,0,0.09,0.25,0.01,0.7c-0.07,0.44-0.33,1.11-0.99,1.64c-0.63,0.53-1.73,0.86-2.81,0.48c-1.07-0.35-2.01-1.48-2-2.82
									c-0.01-1.34,0.93-2.47,2-2.82c1.08-0.38,2.17-0.06,2.81,0.48c0.66,0.53,0.92,1.2,0.99,1.64
									C227.23,376.93,227.17,377.18,227.14,377.17z"/>
							</g>
						</g>
					</g>
					<g>
						<g>
							<path class="st10" d="M225.65,375.99c0.05,0.14-0.61,0.48-1.21,1.12c-0.62,0.63-0.93,1.29-1.08,1.25
								c-0.14-0.03-0.01-0.88,0.7-1.61C224.77,376.01,225.62,375.86,225.65,375.99z"/>
						</g>
					</g>
					<g>
						<g>
							<path class="st10" d="M225.65,378.04c-0.12,0.08-0.59-0.42-1.26-0.87c-0.67-0.46-1.31-0.7-1.28-0.85
								c0.02-0.14,0.8-0.11,1.57,0.42C225.46,377.25,225.77,377.97,225.65,378.04z"/>
						</g>
					</g>
				</g>
			</g>
			<g class="st15">
				<g>
					<path d="M218.25,385.08c10.82,2.35,23.46,2.44,35.15,1.87c5.62-0.27,11.79-0.63,16.29,2.76c0.99,0.74,2.14,1.71,3.3,1.28
						c1.69-0.63,1.75-3.7,3.55-3.77c0.9-0.03,1.58,0.83,1.88,1.68c0.29,0.85,0.36,1.79,0.82,2.56c0.46,0.77,1.55,1.3,2.27,0.75
						c1.14-0.87-0.17-2.74,0.26-4.11c0.45-1.42,2.46-1.53,3.84-0.97c1.38,0.56,2.73,1.53,4.2,1.32c1.06-0.16,1.91-0.9,2.83-1.45
						c2.63-1.6,5.88-1.7,8.96-1.75c3.25-0.06,6.6-0.37,9.85-0.42L218.25,385.08z"/>
				</g>
			</g>
			<g>
				<g>
					<path class="st10" d="M292.77,349.79c0,0.02-0.17,0.08-0.51,0.18c-0.34,0.1-0.84,0.22-1.45,0.48
						c-1.24,0.47-2.94,1.38-4.88,2.77c-1.95,1.36-4.1,3.24-6.83,4.9c-1.37,0.81-2.91,1.54-4.63,1.92c-1.72,0.43-3.54,0.35-5.34,0.4
						c-3.65-0.04-6.84,1.49-9.6,2.96c-2.78,1.49-5.28,2.84-7.25,4.17c-1.98,1.32-3.42,2.6-4.35,3.56c-0.92,0.96-1.36,1.56-1.4,1.53
						c-0.01-0.01,0.08-0.17,0.29-0.46c0.2-0.29,0.52-0.7,0.96-1.21c0.88-1.01,2.31-2.35,4.29-3.72c1.97-1.38,4.46-2.78,7.24-4.29
						c1.39-0.75,2.88-1.52,4.52-2.11c1.63-0.61,3.46-0.93,5.29-0.95c1.83-0.05,3.61,0.03,5.25-0.38c1.65-0.36,3.15-1.05,4.49-1.84
						c2.69-1.61,4.87-3.46,6.87-4.79c1.98-1.36,3.74-2.24,5.02-2.65c0.63-0.23,1.15-0.33,1.5-0.4
						C292.58,349.8,292.76,349.77,292.77,349.79z"/>
				</g>
			</g>
			<g>
				<g>
					<path class="st10" d="M269.06,357.71c-0.01,0.06-1.13-0.06-2.9-0.45c-1.77-0.39-4.19-1.07-6.77-2.1
						c-2.57-1.04-4.8-2.21-6.35-3.16c-1.55-0.95-2.44-1.63-2.41-1.68c0.04-0.07,1,0.51,2.59,1.36c1.58,0.86,3.81,1.97,6.36,3
						c2.55,1.02,4.93,1.76,6.66,2.23C267.99,357.38,269.08,357.63,269.06,357.71z"/>
				</g>
			</g>
			<g>
				<path class="st16" d="M284.1,325.07c0.76-0.4,23.23-7.63,23.23-7.63l-21.48,12.04L284.1,325.07z"/>
			</g>
			<g>
				<path class="st10" d="M281.76,322.64c-4.2,0-7.6,3.4-7.6,7.6h15.19C289.36,326.05,285.96,322.64,281.76,322.64z"/>
			</g>
			<g>
				<g>
					<path class="st10" d="M205.35,394.09c-0.14,0-0.26-24.42-0.26-54.54c0-30.13,0.12-54.55,0.26-54.55
						c0.14,0,0.26,24.42,0.26,54.55C205.61,369.67,205.49,394.09,205.35,394.09z"/>
				</g>
			</g>
			<g>
				<g>
					<path class="st10" d="M324.2,394.09c-0.14,0-0.26-24.42-0.26-54.54c0-30.13,0.12-54.55,0.26-54.55
						c0.14,0,0.26,24.42,0.26,54.55C324.46,369.67,324.34,394.09,324.2,394.09z"/>
				</g>
			</g>
			<g>
				<circle class="st10" cx="200.36" cy="298.63" r="1.17"/>
			</g>
			<g>
				<circle class="st10" cx="200.36" cy="320.51" r="1.17"/>
			</g>
			<g>
				<circle class="st10" cx="200.36" cy="342.4" r="1.17"/>
			</g>
			<g>
				<circle class="st10" cx="200.36" cy="364.29" r="1.17"/>
			</g>
			<g>
				<circle class="st10" cx="200.36" cy="386.17" r="1.17"/>
			</g>
			<g>
				<circle class="st10" cx="330.31" cy="298.63" r="1.17"/>
			</g>
			<g>
				<circle class="st10" cx="330.31" cy="320.51" r="1.17"/>
			</g>
			<g>
				<circle class="st10" cx="330.31" cy="342.4" r="1.17"/>
			</g>
			<g>
				<circle class="st10" cx="330.31" cy="364.29" r="1.17"/>
			</g>
			<g>
				<circle class="st10" cx="330.31" cy="386.17" r="1.17"/>
			</g>
			<g>
				<g>
					<rect x="234.3" y="272.27" class="st11" width="51.1" height="12.04"/>
				</g>
				<g>
					<g>
						<path class="st10" d="M237.99,284.32c-0.14,0-0.26-2.6-0.26-5.81c0-3.21,0.12-5.81,0.26-5.81c0.14,0,0.26,2.6,0.26,5.81
							C238.25,281.71,238.13,284.32,237.99,284.32z"/>
					</g>
				</g>
				<g>
					<g>
						<path class="st10" d="M243.23,284.32c-0.14,0-0.26-2.6-0.26-5.81c0-3.21,0.12-5.81,0.26-5.81c0.14,0,0.26,2.6,0.26,5.81
							C243.49,281.71,243.38,284.32,243.23,284.32z"/>
					</g>
				</g>
				<g>
					<g>
						<path class="st10" d="M248.48,284.32c-0.14,0-0.26-2.6-0.26-5.81c0-3.21,0.12-5.81,0.26-5.81c0.14,0,0.26,2.6,0.26,5.81
							C248.74,281.71,248.62,284.32,248.48,284.32z"/>
					</g>
				</g>
				<g>
					<g>
						<path class="st10" d="M253.73,284.32c-0.14,0-0.26-2.6-0.26-5.81c0-3.21,0.12-5.81,0.26-5.81c0.14,0,0.26,2.6,0.26,5.81
							C253.99,281.71,253.87,284.32,253.73,284.32z"/>
					</g>
				</g>
				<g>
					<g>
						<path class="st10" d="M258.97,284.32c-0.14,0-0.26-2.6-0.26-5.81c0-3.21,0.12-5.81,0.26-5.81s0.26,2.6,0.26,5.81
							C259.23,281.71,259.12,284.32,258.97,284.32z"/>
					</g>
				</g>
				<g>
					<g>
						<path class="st10" d="M264.22,284.32c-0.14,0-0.26-2.6-0.26-5.81c0-3.21,0.12-5.81,0.26-5.81s0.26,2.6,0.26,5.81
							C264.48,281.71,264.36,284.32,264.22,284.32z"/>
					</g>
				</g>
				<g>
					<g>
						<path class="st10" d="M269.47,284.32c-0.14,0-0.26-2.6-0.26-5.81c0-3.21,0.12-5.81,0.26-5.81c0.14,0,0.26,2.6,0.26,5.81
							C269.73,281.71,269.61,284.32,269.47,284.32z"/>
					</g>
				</g>
				<g>
					<g>
						<path class="st10" d="M274.71,284.32c-0.14,0-0.26-2.6-0.26-5.81c0-3.21,0.12-5.81,0.26-5.81s0.26,2.6,0.26,5.81
							C274.97,281.71,274.86,284.32,274.71,284.32z"/>
					</g>
				</g>
				<g>
					<g>
						<path class="st10" d="M279.96,284.32c-0.14,0-0.26-2.6-0.26-5.81c0-3.21,0.12-5.81,0.26-5.81s0.26,2.6,0.26,5.81
							C280.22,281.71,280.1,284.32,279.96,284.32z"/>
					</g>
				</g>
			</g>
			<g class="st15">
				<g>
					<path d="M345.68,310.42c1.24,6.26,2.38,12.16,3.62,18.42c-1.22,0.15-3.62-0.01-3.62-0.01
						C345.65,322.83,345.71,316.42,345.68,310.42"/>
				</g>
			</g>
			<g>
				<g>
					<path class="st13" d="M192.15,296.05c0.14,0-0.01,18.68-0.34,41.7c-0.33,23.04-0.72,41.7-0.86,41.7
						c-0.14,0,0.01-18.67,0.34-41.71C191.62,314.72,192,296.05,192.15,296.05z"/>
				</g>
			</g>
			<g>
				<g>
					<path class="st13" d="M213.89,382.03c-0.14,0-0.26-9.3-0.26-20.77c0-11.47,0.12-20.77,0.26-20.77c0.14,0,0.26,9.3,0.26,20.77
						C214.15,372.73,214.03,382.03,213.89,382.03z"/>
				</g>
			</g>
			<g>
				<g>
					<path class="st13" d="M312.1,287.68c0,0.14-22.92,0.26-51.2,0.26c-28.28,0-51.2-0.12-51.2-0.26c0-0.14,22.92-0.26,51.2-0.26
						C289.17,287.42,312.1,287.54,312.1,287.68z"/>
				</g>
			</g>
		</g>
	</g>
</g>
<g id="Floor">
	<g>
		<g>
			<path class="st10" d="M462.62,475.16c0,0.14-95.2,0.26-212.61,0.26c-117.45,0-212.63-0.12-212.63-0.26s95.18-0.26,212.63-0.26
				C367.42,474.9,462.62,475.01,462.62,475.16z"/>
		</g>
	</g>
</g>
</svg>
